<svg width="56" height="56" viewBox="0 0 56 56" fill="none" xmlns="http://www.w3.org/2000/svg">
<path d="M19.3442 31.2631C19.1708 30.627 19.6496 30 20.309 30H35.6905C36.3499 30 36.8288 30.627 36.6553 31.2631L36.3825 32.2631C36.2639 32.6982 35.8687 33 35.4178 33H20.5817C20.1308 33 19.7356 32.6982 19.617 32.2631L19.3442 31.2631Z" fill="url(#paint0_linear_717_8451)" stroke="url(#paint1_linear_717_8451)" stroke-opacity="0.4" stroke-width="0.5" stroke-linejoin="round"/>
<g style="mix-blend-mode:overlay" opacity="0.7">
<path d="M18.9998 30H36.9998L36.1816 33H19.8179L18.9998 30Z" fill="url(#paint2_linear_717_8451)"/>
</g>
<rect x="29.9998" y="33" width="14" height="4" transform="rotate(90 29.9998 33)" fill="url(#paint3_linear_717_8451)" stroke="url(#paint4_linear_717_8451)" stroke-opacity="0.4" stroke-width="0.5" stroke-linejoin="round"/>
<path d="M19.9746 42.7247C20.5187 42.2571 21.2124 42 21.9299 42H34.0696C34.7871 42 35.4808 42.2571 36.0249 42.7247L38.9536 45.2416C39.6572 45.8463 39.2296 47 38.3018 47H17.6977C16.7699 47 16.3423 45.8463 17.0459 45.2416L19.9746 42.7247Z" fill="url(#paint5_linear_717_8451)" stroke="url(#paint6_linear_717_8451)" stroke-opacity="0.4" stroke-width="0.5" stroke-linejoin="round"/>
<path d="M40.2891 30.5C40.1028 30.9888 39.9995 31.5285 39.9995 32.0957C39.9995 34.3048 41.5665 36.0957 43.4995 36.0957H44.3568C42.991 35.5716 42.0011 34.0214 42.0011 32.1906C42.0011 31.5878 42.1084 31.0154 42.3012 30.5H40.2891Z" fill="#CCE9FF"/>
<path d="M11.3755 36.1899C9.512 36.1899 8.00131 34.3565 8.00131 32.0949C8.00131 29.8334 9.512 28 11.3755 28C13.2391 28 14.7498 29.8334 14.7498 32.0949C14.7498 34.3565 13.2391 36.1899 11.3755 36.1899Z" fill="#66BCFF" stroke="url(#paint7_linear_717_8451)" stroke-opacity="0.4" stroke-width="0.5" stroke-linejoin="round"/>
<path d="M19.9785 27.2217C19.891 27.1233 19.7761 27.0521 19.6393 27.0193C19.7761 27.0467 19.891 27.1233 19.9785 27.2217Z" fill="#EBF1FF"/>
<path d="M13.0163 20.718L4.61898 22.4433H4.60806C3.97471 22.5743 3.55429 23.1804 3.66349 23.8192V23.8465C3.74539 23.8083 3.83275 23.7864 3.93103 23.7864H6.26787C7.11962 23.7864 7.80756 24.4908 7.78027 25.3534C7.76934 25.681 7.47451 25.9376 7.14146 25.9376H4.00201L4.10426 26.5808C4.14285 26.8236 4.35222 27.0023 4.59805 27.0023H25.4158C25.6709 27.0013 25.7437 27.0007 25.8164 27.0004C25.9112 27 26.0059 27 26.5031 27C27.404 27 29.0031 27 30.0075 27.0023H43.0721L43.0741 27H47.6519L47.654 27.0023H50.3457C50.9627 27.0023 51.5196 26.6256 51.738 26.0468L52.7863 23.306C53.1193 22.4378 53.0593 21.466 52.6225 20.647L47.452 8.88283C46.5128 7.10836 44.6674 6 42.6581 6H23.2591C21.845 6 20.5564 6.80807 19.934 8.07476L15.7845 18.5722C15.244 19.6751 14.223 20.4723 13.0163 20.718Z" fill="#80C2FF"/>
<path d="M20.1328 27.7229L19.8489 30.0215L20.1328 27.7229Z" fill="#EBF1FF"/>
<path d="M19.9788 27.2217C19.8912 27.1233 19.7763 27.0521 19.6396 27.0193C19.7763 27.0467 19.8912 27.1233 19.9788 27.2217Z" stroke="url(#paint8_linear_717_8451)" stroke-width="0.5" stroke-linecap="round" stroke-linejoin="round"/>
<path d="M13.0149 20.718L4.61761 22.4433H4.60669C3.97334 22.5743 3.55293 23.1804 3.66212 23.8192V23.8465M50.3443 27.0023C50.9613 27.0023 51.5182 26.6256 51.7366 26.0468L52.7849 23.306C53.118 22.4378 53.0579 21.466 52.6211 20.647L47.4506 8.88283C46.5115 7.10836 44.666 6 42.6568 6H23.2577C21.8436 6 20.5551 6.80807 19.9326 8.07476L18.8953 10.6991" stroke="url(#paint9_linear_717_8451)" stroke-width="0.5" stroke-linecap="round" stroke-linejoin="round"/>
<path d="M20.1328 27.7229L19.8489 30.0215L20.1328 27.7229Z" stroke="url(#paint10_linear_717_8451)" stroke-width="0.5" stroke-linecap="round" stroke-linejoin="round"/>
<path d="M50.9307 28.7376C50.9307 27.7804 50.1548 27.0045 49.1977 27.0045H4.73783C3.57765 27.0045 2.74512 28.1223 3.07739 29.2339C3.29675 29.9678 3.97187 30.4706 4.73784 30.4706H49.1977C50.1548 30.4706 50.9307 29.6947 50.9307 28.7376Z" fill="#CCE9FF"/>
<g style="mix-blend-mode:overlay" opacity="0.64">
<path d="M21.917 28.7376C21.917 27.7804 21.1411 27.0045 20.1839 27.0045H4.73393C3.57375 27.0045 2.74121 28.1223 3.07348 29.2339C3.29285 29.9678 3.96797 30.4706 4.73393 30.4706H20.1839C21.1411 30.4706 21.917 29.6947 21.917 28.7376Z" fill="black"/>
</g>
<path d="M45.3677 36.0942C43.5042 36.0942 41.9935 34.2608 41.9935 31.9992C41.9935 29.7377 43.5042 27.9043 45.3677 27.9043C47.2313 27.9043 48.7419 29.7377 48.7419 31.9992C48.7419 34.2608 47.2313 36.0942 45.3677 36.0942Z" fill="#E5F4FF"/>
<path d="M42.7625 29.3963C43.2398 29.0825 43.7864 28.9043 44.3674 28.9043C46.2309 28.9043 47.7416 30.7377 47.7416 32.9992C47.7416 33.9878 47.453 34.8946 46.9724 35.6022C48.026 34.9094 48.7416 33.5557 48.7416 31.9992C48.7416 29.7377 47.2309 27.9043 45.3674 27.9043C44.3185 27.9043 43.3813 28.4852 42.7625 29.3963Z" fill="white"/>
<path d="M29.3677 36.1899C27.5042 36.1899 25.9935 34.3565 25.9935 32.0949C25.9935 29.8334 27.5042 28 29.3677 28C31.2313 28 32.7419 29.8334 32.7419 32.0949C32.7419 34.3565 31.2313 36.1899 29.3677 36.1899Z" fill="#E5F4FF"/>
<path d="M26.7625 29.492C27.2398 29.1782 27.7864 29 28.3674 29C30.2309 29 31.7416 30.8334 31.7416 33.0949C31.7416 34.0835 31.453 34.9903 30.9724 35.6979C32.026 35.0051 32.7416 33.6514 32.7416 32.0949C32.7416 29.8334 31.2309 28 29.3674 28C28.3185 28 27.3813 28.5809 26.7625 29.492Z" fill="white"/>
<path d="M24.2891 30.5C24.1028 30.9888 23.9995 31.5285 23.9995 32.0957C23.9995 34.3048 25.5665 36.0957 27.4995 36.0957H28.3568C26.991 35.5716 26.0011 34.0214 26.0011 32.1906C26.0011 31.5878 26.1084 31.0154 26.3012 30.5H24.2891Z" fill="#CCE9FF"/>
<path d="M45.3677 36.0942C43.5042 36.0942 41.9935 34.2608 41.9935 31.9992C41.9935 29.7377 43.5042 27.9043 45.3677 27.9043C47.2313 27.9043 48.7419 29.7377 48.7419 31.9992C48.7419 34.2608 47.2313 36.0942 45.3677 36.0942Z" stroke="url(#paint11_linear_717_8451)" stroke-width="0.5" stroke-linecap="round" stroke-linejoin="round"/>
<path d="M29.3677 36.1899C27.5042 36.1899 25.9935 34.3565 25.9935 32.0949C25.9935 29.8334 27.5042 28 29.3677 28C31.2313 28 32.7419 29.8334 32.7419 32.0949C32.7419 34.3565 31.2313 36.1899 29.3677 36.1899Z" stroke="url(#paint12_linear_717_8451)" stroke-width="0.5" stroke-linecap="round" stroke-linejoin="round"/>
<path d="M30.7383 12.071L27.5752 20.8935C27.3951 21.3194 27.3023 21.778 27.3023 22.2367V25.2178" stroke="url(#paint13_linear_717_8451)" stroke-width="0.5" stroke-linecap="round" stroke-linejoin="round"/>
<g filter="url(#filter0_d_717_8451)">
<path d="M22.3741 8.02861H28.8517C29.4745 8.02861 29.8966 8.63137 29.6598 9.18472L26.5 19.0002C26.114 19.9093 25.1977 20.4972 24.1786 20.4972L17.0878 20.1657C16.7069 20.1657 16.4599 19.7803 16.6246 19.4543L21.041 8.81911C21.2932 8.33493 21.8079 8.02367 22.3741 8.02367V8.02861Z" fill="#FFBB00"/>
</g>
<g filter="url(#filter1_d_717_8451)">
<path d="M35.6904 8.02367H37.9103C38.4148 8.02367 38.8352 8.3794 38.893 8.8537L39.8389 19.1381C39.902 19.6865 39.4448 20.1657 38.8562 20.1657H31.8175C31.0766 20.1657 30.5564 19.479 30.7981 18.8169L33.4676 9.51574C33.7934 8.62643 34.6867 8.02367 35.6904 8.02367Z" fill="#FFBB00"/>
</g>
<g filter="url(#filter2_d_717_8451)">
<path d="M42.8575 8.02861H43.3793C44.9499 8.02861 45.3558 8.90804 45.9724 10.2667L48.8606 18.6835C49.1768 19.3851 48.6287 20.1657 47.8118 20.1657H43.5532C43.0367 20.1657 42.6098 19.7952 42.5676 19.311L41.8719 9.02662C41.8245 8.48809 42.283 8.02367 42.8575 8.02367V8.02861Z" fill="#FFBB00"/>
</g>
<path d="M6.26885 23.7867H3.93201C3.57712 23.7867 3.29321 24.0761 3.29321 24.4255V25.2991C3.29321 25.654 3.58258 25.9379 3.93201 25.9379H7.14244C7.49733 25.9379 7.78125 25.6485 7.78125 25.2991C7.78125 24.4637 7.10422 23.7812 6.2634 23.7812L6.26885 23.7867Z" fill="url(#paint14_linear_717_8451)"/>
<path d="M21.6831 26.2436C21.6831 26.664 21.3446 27.0026 20.9242 27.0026H4.17996L4.00524 25.9379H7.15015C7.4832 25.9379 7.77804 25.6813 7.78896 25.3537C7.81626 24.491 7.12831 23.7867 6.27657 23.7867H3.93973C3.84691 23.7867 3.75955 23.8085 3.67765 23.8467C3.62851 23.2461 4.09806 22.722 4.71503 22.722H20.9242C21.3446 22.722 21.6831 23.0605 21.6831 23.4809" fill="url(#paint15_linear_717_8451)"/>
<path d="M21.6831 26.2436C21.6831 26.664 21.3446 27.0026 20.9242 27.0026H4.17996L4.00524 25.9379H7.15015C7.4832 25.9379 7.77804 25.6813 7.78896 25.3537C7.81626 24.491 7.12831 23.7867 6.27657 23.7867H3.93973C3.84691 23.7867 3.75955 23.8085 3.67765 23.8467C3.62851 23.2461 4.09806 22.722 4.71503 22.722H20.9242C21.3446 22.722 21.6831 23.0605 21.6831 23.4809" stroke="url(#paint16_linear_717_8451)" stroke-opacity="0.4" stroke-width="0.5" stroke-linejoin="round"/>
<g style="mix-blend-mode:overlay">
<path d="M21.6833 26.2438C21.6833 26.6642 21.3448 27.0027 20.9244 27.0027H4.1802L4.00549 25.9381H7.15039C7.48345 25.9381 7.77828 25.6814 7.7892 25.3538C7.8165 24.4912 7.12856 23.7869 6.27681 23.7869H3.93997C3.84715 23.7869 3.75979 23.8087 3.67789 23.8469C3.62875 23.2463 4.0983 22.7222 4.71527 22.7222H20.9244C21.3448 22.7222 21.6833 23.0607 21.6833 23.4811" fill="url(#paint17_linear_717_8451)"/>
</g>
<path d="M16.6399 25.9388H19.8503C20.2052 25.9388 20.4891 25.6494 20.4891 25.3V24.4264C20.4891 24.0715 20.1997 23.7876 19.8503 23.7876H17.5135C16.6781 23.7876 15.9956 24.4646 15.9956 25.3054C15.9956 25.6603 16.285 25.9443 16.6344 25.9443L16.6399 25.9388Z" fill="url(#paint18_linear_717_8451)"/>
<path d="M19.1034 12.0708H7.04424C6.55405 12.0708 6.35661 12.7028 6.75963 12.9818L8.17437 13.9613C8.51109 14.1944 8.67164 14.6093 8.57955 15.0083L8.12052 16.9975C8.03105 17.3852 8.17994 17.789 8.49966 18.0258L11.8395 20.5H24.219C24.6744 20.5 24.8927 19.9409 24.5579 19.6323L22.3919 17.6359L22.7713 14.3474L19.1034 12.0708Z" fill="#E5F4FF"/>
<path d="M22.7167 14.5004H8.69843L7.99829 17.5004H22.3293L22.7167 14.5004Z" fill="#B3DDFF"/>
<path d="M12.5265 20.6714L8.54831 18.0193C8.20221 17.7885 8.03509 17.3677 8.12862 16.9624L8.57955 15.0083C8.67164 14.6093 8.51109 14.1944 8.17437 13.9613L6.75963 12.9818C6.35661 12.7028 6.55405 12.0708 7.04424 12.0708H18.5332C18.9059 12.0708 19.2712 12.1749 19.5879 12.3715L22.2326 14.013C22.5615 14.2171 22.743 14.5927 22.6986 14.9773L22.4531 17.105C22.4148 17.4367 22.5446 17.7656 22.7991 17.9818L23.9983 19.0004" stroke="url(#paint19_linear_717_8451)" stroke-width="0.5" stroke-linecap="round" stroke-linejoin="round"/>
<path d="M11.5145 21.1773L10.5027 14.6003" stroke="url(#paint20_linear_717_8451)" stroke-width="0.5" stroke-linecap="round" stroke-linejoin="round"/>
<defs>
<filter id="filter0_d_717_8451" x="11.5728" y="5.02367" width="19.1538" height="18.4736" filterUnits="userSpaceOnUse" color-interpolation-filters="sRGB">
<feFlood flood-opacity="0" result="BackgroundImageFix"/>
<feColorMatrix in="SourceAlpha" type="matrix" values="0 0 0 0 0 0 0 0 0 0 0 0 0 0 0 0 0 0 127 0" result="hardAlpha"/>
<feOffset dx="-2"/>
<feGaussianBlur stdDeviation="1.5"/>
<feComposite in2="hardAlpha" operator="out"/>
<feColorMatrix type="matrix" values="0 0 0 0 1 0 0 0 0 0.780392 0 0 0 0 0.164706 0 0 0 0.5 0"/>
<feBlend mode="normal" in2="BackgroundImageFix" result="effect1_dropShadow_717_8451"/>
<feBlend mode="normal" in="SourceGraphic" in2="effect1_dropShadow_717_8451" result="shape"/>
</filter>
<filter id="filter1_d_717_8451" x="25.7383" y="5.02367" width="15.1064" height="18.142" filterUnits="userSpaceOnUse" color-interpolation-filters="sRGB">
<feFlood flood-opacity="0" result="BackgroundImageFix"/>
<feColorMatrix in="SourceAlpha" type="matrix" values="0 0 0 0 0 0 0 0 0 0 0 0 0 0 0 0 0 0 127 0" result="hardAlpha"/>
<feOffset dx="-2"/>
<feGaussianBlur stdDeviation="1.5"/>
<feComposite in2="hardAlpha" operator="out"/>
<feColorMatrix type="matrix" values="0 0 0 0 1 0 0 0 0 0.780392 0 0 0 0 0.164706 0 0 0 0.5 0"/>
<feBlend mode="normal" in2="BackgroundImageFix" result="effect1_dropShadow_717_8451"/>
<feBlend mode="normal" in="SourceGraphic" in2="effect1_dropShadow_717_8451" result="shape"/>
</filter>
<filter id="filter2_d_717_8451" x="36.8687" y="5.02367" width="13.0828" height="18.142" filterUnits="userSpaceOnUse" color-interpolation-filters="sRGB">
<feFlood flood-opacity="0" result="BackgroundImageFix"/>
<feColorMatrix in="SourceAlpha" type="matrix" values="0 0 0 0 0 0 0 0 0 0 0 0 0 0 0 0 0 0 127 0" result="hardAlpha"/>
<feOffset dx="-2"/>
<feGaussianBlur stdDeviation="1.5"/>
<feComposite in2="hardAlpha" operator="out"/>
<feColorMatrix type="matrix" values="0 0 0 0 1 0 0 0 0 0.780392 0 0 0 0 0.164706 0 0 0 0.5 0"/>
<feBlend mode="normal" in2="BackgroundImageFix" result="effect1_dropShadow_717_8451"/>
<feBlend mode="normal" in="SourceGraphic" in2="effect1_dropShadow_717_8451" result="shape"/>
</filter>
<linearGradient id="paint0_linear_717_8451" x1="36.4063" y1="32.6325" x2="19.3954" y2="32.6325" gradientUnits="userSpaceOnUse">
<stop stop-color="#008FFF"/>
<stop offset="1" stop-color="#33A5FF"/>
</linearGradient>
<linearGradient id="paint1_linear_717_8451" x1="37.3482" y1="33" x2="20.4474" y2="20.6658" gradientUnits="userSpaceOnUse">
<stop stop-color="white"/>
<stop offset="1" stop-color="white" stop-opacity="0"/>
</linearGradient>
<linearGradient id="paint2_linear_717_8451" x1="22.0572" y1="31.5" x2="39.7796" y2="32.2474" gradientUnits="userSpaceOnUse">
<stop/>
<stop offset="1" stop-opacity="0"/>
</linearGradient>
<linearGradient id="paint3_linear_717_8451" x1="43.5382" y1="36.51" x2="30.3074" y2="36.51" gradientUnits="userSpaceOnUse">
<stop stop-color="#008FFF"/>
<stop offset="1" stop-color="#33A5FF"/>
</linearGradient>
<linearGradient id="paint4_linear_717_8451" x1="44.2708" y1="37" x2="27.2155" y2="29.7393" gradientUnits="userSpaceOnUse">
<stop stop-color="white"/>
<stop offset="1" stop-color="white" stop-opacity="0"/>
</linearGradient>
<linearGradient id="paint5_linear_717_8451" x1="39.9448" y1="46.3875" x2="9.70305" y2="46.3875" gradientUnits="userSpaceOnUse">
<stop stop-color="#008FFF"/>
<stop offset="1" stop-color="#33A5FF"/>
</linearGradient>
<linearGradient id="paint6_linear_717_8451" x1="41.6192" y1="47" x2="12.9462" y2="24.6795" gradientUnits="userSpaceOnUse">
<stop stop-color="white"/>
<stop offset="1" stop-color="white" stop-opacity="0"/>
</linearGradient>
<linearGradient id="paint7_linear_717_8451" x1="7.87067" y1="36.1899" x2="17.4852" y2="35.2262" gradientUnits="userSpaceOnUse">
<stop stop-color="white"/>
<stop offset="1" stop-color="white" stop-opacity="0"/>
</linearGradient>
<linearGradient id="paint8_linear_717_8451" x1="19.6261" y1="27.1275" x2="20.0082" y2="27.1275" gradientUnits="userSpaceOnUse">
<stop stop-color="#1B217C"/>
<stop offset="1" stop-color="#1B217C" stop-opacity="0"/>
</linearGradient>
<linearGradient id="paint9_linear_717_8451" x1="1.6843" y1="17.2245" x2="57.286" y2="17.2245" gradientUnits="userSpaceOnUse">
<stop stop-color="#1B217C"/>
<stop offset="1" stop-color="#1B217C" stop-opacity="0"/>
</linearGradient>
<linearGradient id="paint10_linear_717_8451" x1="19.8376" y1="28.9514" x2="20.1575" y2="28.9514" gradientUnits="userSpaceOnUse">
<stop stop-color="#1B217C"/>
<stop offset="1" stop-color="#1B217C" stop-opacity="0"/>
</linearGradient>
<linearGradient id="paint11_linear_717_8451" x1="38.2916" y1="26.2383" x2="47.3981" y2="35.8508" gradientUnits="userSpaceOnUse">
<stop stop-color="#1B217C"/>
<stop offset="1" stop-color="#1B217C" stop-opacity="0"/>
</linearGradient>
<linearGradient id="paint12_linear_717_8451" x1="22.2916" y1="26.334" x2="31.3981" y2="35.9465" gradientUnits="userSpaceOnUse">
<stop stop-color="#1B217C"/>
<stop offset="0.936325" stop-color="#1B217C" stop-opacity="0"/>
</linearGradient>
<linearGradient id="paint13_linear_717_8451" x1="27.1658" y1="19.0972" x2="31.0368" y2="19.0972" gradientUnits="userSpaceOnUse">
<stop stop-color="#1B217C"/>
<stop offset="1" stop-color="#1B217C" stop-opacity="0"/>
</linearGradient>
<linearGradient id="paint14_linear_717_8451" x1="3.44116" y1="25.6737" x2="7.68261" y2="25.6737" gradientUnits="userSpaceOnUse">
<stop stop-color="#FFBB00"/>
<stop offset="1" stop-color="#FFE18F"/>
</linearGradient>
<linearGradient id="paint15_linear_717_8451" x1="4.26782" y1="26.4782" x2="21.2873" y2="26.4782" gradientUnits="userSpaceOnUse">
<stop stop-color="#008FFF"/>
<stop offset="1" stop-color="#33A5FF"/>
</linearGradient>
<linearGradient id="paint16_linear_717_8451" x1="3.32549" y1="27.0026" x2="23.8627" y2="16.4931" gradientUnits="userSpaceOnUse">
<stop stop-color="white"/>
<stop offset="1" stop-color="white" stop-opacity="0"/>
</linearGradient>
<linearGradient id="paint17_linear_717_8451" x1="6.24707" y1="23.1522" x2="7.09883" y2="29.1915" gradientUnits="userSpaceOnUse">
<stop/>
<stop offset="1" stop-opacity="0"/>
</linearGradient>
<linearGradient id="paint18_linear_717_8451" x1="20.341" y1="24.0518" x2="16.0944" y2="24.0518" gradientUnits="userSpaceOnUse">
<stop stop-color="#FFBB00"/>
<stop offset="1" stop-color="#FFE18F"/>
</linearGradient>
<linearGradient id="paint19_linear_717_8451" x1="27.0103" y1="16.6673" x2="3.64132" y2="16.6673" gradientUnits="userSpaceOnUse">
<stop stop-color="#1B217C"/>
<stop offset="1" stop-color="#1B217C" stop-opacity="0"/>
</linearGradient>
<linearGradient id="paint20_linear_717_8451" x1="10.0571" y1="18.3857" x2="6.96126" y2="14.0944" gradientUnits="userSpaceOnUse">
<stop stop-color="#1B217C"/>
<stop offset="1" stop-color="#1B217C" stop-opacity="0"/>
</linearGradient>
</defs>
</svg>
