<svg width="56" height="56" viewBox="0 0 56 56" fill="none" xmlns="http://www.w3.org/2000/svg">
<rect x="30" y="33" width="14" height="4" transform="rotate(90 30 33)" fill="url(#paint0_linear_717_8452)" stroke="url(#paint1_linear_717_8452)" stroke-opacity="0.4" stroke-width="0.5" stroke-linejoin="round"/>
<path d="M19.9748 42.7247C20.519 42.2571 21.2127 42 21.9301 42H34.0699C34.7873 42 35.481 42.2571 36.0252 42.7247L38.9538 45.2416C39.6575 45.8463 39.2298 47 38.3021 47H17.6979C16.7702 47 16.3425 45.8463 17.0462 45.2416L19.9748 42.7247Z" fill="url(#paint2_linear_717_8452)" stroke="url(#paint3_linear_717_8452)" stroke-opacity="0.4" stroke-width="0.5" stroke-linejoin="round"/>
<path d="M19.3445 31.2631C19.171 30.627 19.6499 30 20.3093 30H35.6908C36.3501 30 36.829 30.627 36.6555 31.2631L36.3828 32.2631C36.2641 32.6982 35.869 33 35.418 33H20.582C20.131 33 19.7359 32.6982 19.6172 32.2631L19.3445 31.2631Z" fill="url(#paint4_linear_717_8452)" stroke="url(#paint5_linear_717_8452)" stroke-opacity="0.4" stroke-width="0.5" stroke-linejoin="round"/>
<path d="M40.2893 30.5C40.1031 30.9888 39.9998 31.5285 39.9998 32.0957C39.9998 34.3048 41.5668 36.0957 43.4998 36.0957H44.357C42.9913 35.5716 42.0013 34.0214 42.0013 32.1906C42.0013 31.5878 42.1087 31.0154 42.3014 30.5H40.2893Z" fill="#CCE9FF"/>
<path d="M11.3758 36.1899C9.51225 36.1899 8.00155 34.3565 8.00155 32.0949C8.00155 29.8334 9.51225 28 11.3758 28C13.2393 28 14.75 29.8334 14.75 32.0949C14.75 34.3565 13.2393 36.1899 11.3758 36.1899Z" fill="#66BCFF" stroke="url(#paint6_linear_717_8452)" stroke-opacity="0.4" stroke-width="0.5" stroke-linejoin="round"/>
<path d="M19.9771 27.2217C19.8895 27.1233 19.7746 27.0521 19.6379 27.0193C19.7746 27.0467 19.8895 27.1233 19.9771 27.2217Z" fill="#EBF1FF"/>
<path d="M13.0131 20.718L4.61581 22.4433H4.60489C3.97154 22.5743 3.55112 23.1804 3.66032 23.8192V23.8465C3.74221 23.8083 3.82958 23.7864 3.92785 23.7864H6.2647C7.11644 23.7864 7.80439 24.4908 7.77709 25.3534C7.76617 25.681 7.47134 25.9376 7.13828 25.9376H3.99883L4.10108 26.5808C4.13968 26.8236 4.34904 27.0023 4.59488 27.0023H25.4126C25.6677 27.0013 25.7405 27.0007 25.8133 27.0004C25.908 27 26.0027 27 26.4999 27C27.4008 27 28.9999 27 30.0044 27.0023H43.0689L43.071 27H47.6488L47.6508 27.0023H50.3425C50.9595 27.0023 51.5164 26.6256 51.7348 26.0468L52.7831 23.306C53.1162 22.4378 53.0561 21.466 52.6193 20.647L47.4488 8.88283C46.5097 7.10836 44.6642 6 42.655 6H23.2559C21.8418 6 20.5533 6.80807 19.9308 8.07476L15.7813 18.5722C15.2408 19.6751 14.2198 20.4723 13.0131 20.718Z" fill="#99CEFF"/>
<path d="M20.1311 27.7229L19.8472 30.0215L20.1311 27.7229Z" fill="#EBF1FF"/>
<path d="M19.9771 27.2217C19.8895 27.1233 19.7746 27.0521 19.6379 27.0193C19.7746 27.0467 19.8895 27.1233 19.9771 27.2217Z" stroke="url(#paint7_linear_717_8452)" stroke-width="0.5" stroke-linecap="round" stroke-linejoin="round"/>
<path d="M13.0132 20.718L4.61591 22.4433H4.60498C3.97164 22.5743 3.55122 23.1804 3.66042 23.8192V23.8465M50.3426 27.0023C50.9596 27.0023 51.5165 26.6256 51.7349 26.0468L52.7832 23.306C53.1163 22.4378 53.0562 21.466 52.6194 20.647L47.4489 8.88283C46.5098 7.10836 44.6643 6 42.6551 6H23.256C21.8419 6 20.5534 6.80807 19.9309 8.07476L18.8936 10.6991" stroke="url(#paint8_linear_717_8452)" stroke-width="0.5" stroke-linecap="round" stroke-linejoin="round"/>
<path d="M20.1311 27.7229L19.8472 30.0215L20.1311 27.7229Z" stroke="url(#paint9_linear_717_8452)" stroke-width="0.5" stroke-linecap="round" stroke-linejoin="round"/>
<path d="M50.9309 28.7374C50.9309 27.7803 50.155 27.0044 49.1979 27.0044H4.73808C3.5779 27.0044 2.74536 28.1222 3.07763 29.2338C3.297 29.9677 3.97212 30.4705 4.73808 30.4705H49.1979C50.155 30.4705 50.9309 29.6946 50.9309 28.7374Z" fill="#CCE9FF"/>
<g style="mix-blend-mode:overlay" opacity="0.64">
<path d="M21.9172 28.7374C21.9172 27.7803 21.1413 27.0044 20.1842 27.0044H4.73417C3.57399 27.0044 2.74146 28.1222 3.07372 29.2338C3.29309 29.9677 3.96821 30.4705 4.73417 30.4705H20.1842C21.1413 30.4705 21.9172 29.6946 21.9172 28.7374Z" fill="black"/>
</g>
<path d="M45.368 36.0942C43.5044 36.0942 41.9937 34.2608 41.9937 31.9992C41.9937 29.7377 43.5044 27.9043 45.368 27.9043C47.2315 27.9043 48.7422 29.7377 48.7422 31.9992C48.7422 34.2608 47.2315 36.0942 45.368 36.0942Z" fill="#E5F4FF"/>
<path d="M42.7615 29.3963C43.2388 29.0825 43.7855 28.9043 44.3664 28.9043C46.23 28.9043 47.7406 30.7377 47.7406 32.9992C47.7406 33.9878 47.452 34.8946 46.9714 35.6022C48.0251 34.9094 48.7406 33.5557 48.7406 31.9992C48.7406 29.7377 47.23 27.9043 45.3664 27.9043C44.3175 27.9043 43.3803 28.4852 42.7615 29.3963Z" fill="white"/>
<path d="M29.368 36.1899C27.5044 36.1899 25.9937 34.3565 25.9937 32.0949C25.9937 29.8334 27.5044 28 29.368 28C31.2315 28 32.7422 29.8334 32.7422 32.0949C32.7422 34.3565 31.2315 36.1899 29.368 36.1899Z" fill="#E5F4FF"/>
<path d="M26.7615 29.492C27.2388 29.1782 27.7855 29 28.3664 29C30.23 29 31.7406 30.8334 31.7406 33.0949C31.7406 34.0835 31.452 34.9903 30.9714 35.6979C32.0251 35.0051 32.7406 33.6514 32.7406 32.0949C32.7406 29.8334 31.23 28 29.3664 28C28.3175 28 27.3803 28.5809 26.7615 29.492Z" fill="white"/>
<path d="M24.2893 30.5C24.1031 30.9888 23.9998 31.5285 23.9998 32.0957C23.9998 34.3048 25.5668 36.0957 27.4998 36.0957H28.357C26.9913 35.5716 26.0013 34.0214 26.0013 32.1906C26.0013 31.5878 26.1087 31.0154 26.3014 30.5H24.2893Z" fill="#CCE9FF"/>
<path d="M45.368 36.0942C43.5044 36.0942 41.9937 34.2608 41.9937 31.9992C41.9937 29.7377 43.5044 27.9043 45.368 27.9043C47.2315 27.9043 48.7422 29.7377 48.7422 31.9992C48.7422 34.2608 47.2315 36.0942 45.368 36.0942Z" stroke="url(#paint10_linear_717_8452)" stroke-width="0.5" stroke-linecap="round" stroke-linejoin="round"/>
<path d="M29.368 36.1899C27.5044 36.1899 25.9937 34.3565 25.9937 32.0949C25.9937 29.8334 27.5044 28 29.368 28C31.2315 28 32.7422 29.8334 32.7422 32.0949C32.7422 34.3565 31.2315 36.1899 29.368 36.1899Z" stroke="url(#paint11_linear_717_8452)" stroke-width="0.5" stroke-linecap="round" stroke-linejoin="round"/>
<path d="M30.7383 12.0708L27.5752 20.8933C27.3951 21.3192 27.3023 21.7778 27.3023 22.2364V25.2176" stroke="url(#paint12_linear_717_8452)" stroke-width="0.5" stroke-linecap="round" stroke-linejoin="round"/>
<path d="M22.3741 8.02838H28.8517C29.4745 8.02838 29.8966 8.63113 29.6598 9.18448L26.5 19C26.114 19.9091 25.1977 20.497 24.1786 20.497L17.0878 20.1655C16.7069 20.1655 16.4599 19.7801 16.6246 19.454L21.041 8.81888C21.2932 8.3347 21.8079 8.02344 22.3741 8.02344V8.02838Z" fill="white"/>
<path d="M35.6894 8.02344H37.9094C38.4138 8.02344 38.8342 8.37916 38.892 8.85346L39.8379 19.1378C39.901 19.6862 39.4438 20.1655 38.8553 20.1655H31.8166C31.0756 20.1655 30.5554 19.4787 30.7971 18.8167L33.4666 9.5155C33.7924 8.62619 34.6857 8.02344 35.6894 8.02344Z" fill="white"/>
<path d="M42.8592 8.02838H43.381C44.9516 8.02838 45.3575 8.90781 45.9741 10.2665L48.8623 18.6833C49.1785 19.3849 48.6304 20.1655 47.8135 20.1655H43.5549C43.0384 20.1655 42.6115 19.7949 42.5693 19.3108L41.8736 9.02638C41.8262 8.48785 42.2847 8.02344 42.8592 8.02344V8.02838Z" fill="white"/>
<path d="M6.26885 23.7867H3.93201C3.57712 23.7867 3.29321 24.0761 3.29321 24.4255V25.2991C3.29321 25.654 3.58258 25.9379 3.93201 25.9379H7.14244C7.49733 25.9379 7.78125 25.6485 7.78125 25.2991C7.78125 24.4637 7.10422 23.7812 6.2634 23.7812L6.26885 23.7867Z" fill="#E5F4FF"/>
<path d="M21.6836 26.2438C21.6836 26.6642 21.3451 27.0027 20.9247 27.0027H4.18044L4.00573 25.9381H7.15064C7.48369 25.9381 7.77853 25.6814 7.78945 25.3538C7.81675 24.4912 7.1288 23.7869 6.27705 23.7869H3.94021C3.84739 23.7869 3.76003 23.8087 3.67814 23.8469C3.629 23.2463 4.09855 22.7222 4.71552 22.7222H20.9247C21.3451 22.7222 21.6836 23.0607 21.6836 23.4811" fill="url(#paint13_linear_717_8452)"/>
<path d="M21.6836 26.2438C21.6836 26.6642 21.3451 27.0027 20.9247 27.0027H4.18044L4.00573 25.9381H7.15064C7.48369 25.9381 7.77853 25.6814 7.78945 25.3538C7.81675 24.4912 7.1288 23.7869 6.27705 23.7869H3.94021C3.8474 23.7869 3.76004 23.8087 3.67814 23.8469C3.629 23.2463 4.09855 22.7222 4.71552 22.7222H20.9247C21.3451 22.7222 21.6836 23.0607 21.6836 23.4811" stroke="url(#paint14_linear_717_8452)" stroke-opacity="0.4" stroke-width="0.5" stroke-linejoin="round"/>
<path d="M16.6404 25.9389H19.8508C20.2057 25.9389 20.4896 25.6495 20.4896 25.3001V24.4265C20.4896 24.0716 20.2002 23.7877 19.8508 23.7877H17.5139C16.6786 23.7877 15.9961 24.4647 15.9961 25.3055C15.9961 25.6604 16.2855 25.9443 16.6349 25.9443L16.6404 25.9389Z" fill="#E5F4FF"/>
<path d="M19.1051 12.0708H7.04595C6.55576 12.0708 6.35832 12.7029 6.76134 12.9819L8.73378 14.3474L7.9749 17.6359L11.8412 20.5H24.2208C24.6761 20.5 24.8944 19.9409 24.5596 19.6323L22.3936 17.6359L22.773 14.3474L19.1051 12.0708Z" fill="#E5F4FF"/>
<path d="M22.7184 14.5005H8.70014L8 17.5005H22.331L22.7184 14.5005Z" fill="#B3DDFF"/>
<path d="M12.5282 20.6714L8.55002 18.0193C8.20392 17.7886 8.0368 17.3677 8.13033 16.9624L8.58126 15.0084C8.67335 14.6093 8.5128 14.1944 8.17608 13.9613L6.76134 12.9819C6.35832 12.7029 6.55576 12.0708 7.04595 12.0708H18.5349C18.9076 12.0708 19.2729 12.175 19.5896 12.3715L22.2343 14.0131C22.5632 14.2172 22.7447 14.5928 22.7003 14.9773L22.4548 17.1051C22.4166 17.4368 22.5464 17.7657 22.8008 17.9818L24 19.0005" stroke="url(#paint15_linear_717_8452)" stroke-width="0.5" stroke-linecap="round" stroke-linejoin="round"/>
<path d="M11.5162 21.1773L10.5044 14.6004" stroke="url(#paint16_linear_717_8452)" stroke-width="0.5" stroke-linecap="round" stroke-linejoin="round"/>
<defs>
<linearGradient id="paint0_linear_717_8452" x1="43.5385" y1="36.51" x2="30.3077" y2="36.51" gradientUnits="userSpaceOnUse">
<stop stop-color="#008FFF"/>
<stop offset="1" stop-color="#33A5FF"/>
</linearGradient>
<linearGradient id="paint1_linear_717_8452" x1="44.271" y1="37" x2="27.2158" y2="29.7393" gradientUnits="userSpaceOnUse">
<stop stop-color="white"/>
<stop offset="1" stop-color="white" stop-opacity="0"/>
</linearGradient>
<linearGradient id="paint2_linear_717_8452" x1="39.9451" y1="46.3875" x2="9.7033" y2="46.3875" gradientUnits="userSpaceOnUse">
<stop stop-color="#008FFF"/>
<stop offset="1" stop-color="#33A5FF"/>
</linearGradient>
<linearGradient id="paint3_linear_717_8452" x1="41.6195" y1="47" x2="12.9464" y2="24.6795" gradientUnits="userSpaceOnUse">
<stop stop-color="white"/>
<stop offset="1" stop-color="white" stop-opacity="0"/>
</linearGradient>
<linearGradient id="paint4_linear_717_8452" x1="36.4066" y1="32.6325" x2="19.3956" y2="32.6325" gradientUnits="userSpaceOnUse">
<stop stop-color="#008FFF"/>
<stop offset="1" stop-color="#33A5FF"/>
</linearGradient>
<linearGradient id="paint5_linear_717_8452" x1="37.3484" y1="33" x2="20.4476" y2="20.6658" gradientUnits="userSpaceOnUse">
<stop stop-color="white"/>
<stop offset="1" stop-color="white" stop-opacity="0"/>
</linearGradient>
<linearGradient id="paint6_linear_717_8452" x1="7.87092" y1="36.1899" x2="17.4854" y2="35.2262" gradientUnits="userSpaceOnUse">
<stop stop-color="white"/>
<stop offset="1" stop-color="white" stop-opacity="0"/>
</linearGradient>
<linearGradient id="paint7_linear_717_8452" x1="19.6244" y1="27.1275" x2="20.0065" y2="27.1275" gradientUnits="userSpaceOnUse">
<stop stop-color="#1B217C"/>
<stop offset="1" stop-color="#1B217C" stop-opacity="0"/>
</linearGradient>
<linearGradient id="paint8_linear_717_8452" x1="1.68259" y1="17.2245" x2="57.2843" y2="17.2245" gradientUnits="userSpaceOnUse">
<stop stop-color="#1B217C"/>
<stop offset="1" stop-color="#1B217C" stop-opacity="0"/>
</linearGradient>
<linearGradient id="paint9_linear_717_8452" x1="19.8359" y1="28.9514" x2="20.1558" y2="28.9514" gradientUnits="userSpaceOnUse">
<stop stop-color="#1B217C"/>
<stop offset="1" stop-color="#1B217C" stop-opacity="0"/>
</linearGradient>
<linearGradient id="paint10_linear_717_8452" x1="38.2918" y1="26.2383" x2="47.3983" y2="35.8508" gradientUnits="userSpaceOnUse">
<stop stop-color="#1B217C"/>
<stop offset="1" stop-color="#1B217C" stop-opacity="0"/>
</linearGradient>
<linearGradient id="paint11_linear_717_8452" x1="22.2918" y1="26.334" x2="31.3983" y2="35.9465" gradientUnits="userSpaceOnUse">
<stop stop-color="#1B217C"/>
<stop offset="0.936325" stop-color="#1B217C" stop-opacity="0"/>
</linearGradient>
<linearGradient id="paint12_linear_717_8452" x1="27.1658" y1="19.097" x2="31.0368" y2="19.097" gradientUnits="userSpaceOnUse">
<stop stop-color="#1B217C"/>
<stop offset="1" stop-color="#1B217C" stop-opacity="0"/>
</linearGradient>
<linearGradient id="paint13_linear_717_8452" x1="4.26831" y1="26.4784" x2="21.2878" y2="26.4784" gradientUnits="userSpaceOnUse">
<stop stop-color="#008FFF"/>
<stop offset="1" stop-color="#33A5FF"/>
</linearGradient>
<linearGradient id="paint14_linear_717_8452" x1="3.32598" y1="27.0027" x2="23.8632" y2="16.4933" gradientUnits="userSpaceOnUse">
<stop stop-color="white"/>
<stop offset="1" stop-color="white" stop-opacity="0"/>
</linearGradient>
<linearGradient id="paint15_linear_717_8452" x1="27.012" y1="16.6673" x2="3.64302" y2="16.6673" gradientUnits="userSpaceOnUse">
<stop stop-color="#1B217C"/>
<stop offset="1" stop-color="#1B217C" stop-opacity="0"/>
</linearGradient>
<linearGradient id="paint16_linear_717_8452" x1="10.0588" y1="18.3858" x2="6.96297" y2="14.0945" gradientUnits="userSpaceOnUse">
<stop stop-color="#1B217C"/>
<stop offset="1" stop-color="#1B217C" stop-opacity="0"/>
</linearGradient>
</defs>
</svg>
