<svg width="56" height="56" viewBox="0 0 56 56" fill="none" xmlns="http://www.w3.org/2000/svg">
<path d="M30.0155 12.9132L26.0559 18.3338L22.0964 12.9132C19.1543 8.87281 13.7302 7.80744 9.55686 10.4407C4.52807 13.6167 3.47177 20.7058 7.34056 25.2956L23.9369 44.9882C25.0645 46.3216 27.0669 46.3216 28.1945 44.9882L44.7908 25.2956C48.6596 20.7058 47.6033 13.6167 42.5745 10.4407C38.4011 7.80744 32.9705 8.87281 30.0284 12.9132H30.0155Z" fill="#EBF5FF"/>
<path d="M29.9246 13.0376L30.0154 12.9133H30.0284C32.9705 8.87296 38.401 7.80759 42.5744 10.4409C47.6032 13.6169 48.6595 20.7059 44.7907 25.2957L28.1944 44.9883C27.9525 45.2744 27.6704 45.4991 27.3652 45.6624L42.7477 27.41C46.6165 22.8202 45.5602 15.7311 40.5314 12.5551C37.1578 10.4265 32.9627 10.7147 29.9246 13.0376Z" fill="white"/>
<path d="M25.8066 17.9927L24.0129 20.4482L20.0534 15.0276C17.1113 10.9872 11.6872 9.92185 7.51382 12.5551C7.27725 12.7045 7.04946 12.8626 6.83057 13.0287C7.54138 12.0229 8.45348 11.1377 9.55679 10.4409C13.7302 7.80759 19.1543 8.87296 22.0964 12.9133L25.8066 17.9927Z" fill="white"/>
<g style="mix-blend-mode:overlay" opacity="0.6">
<path d="M29.4034 43.5537L28.1945 44.9881C27.0669 46.3215 25.0644 46.3215 23.9369 44.9881L7.34056 25.2955C3.65098 20.9183 4.44078 14.2681 8.88369 10.9066C6.34849 14.4856 6.365 19.5966 9.38744 23.1824L25.9837 42.8749C26.8671 43.9195 28.2874 44.1458 29.4034 43.5537Z" fill="black"/>
</g>
<path d="M29 14.7674L27.48 12.7695C25.6664 10.3902 22.9264 9.0842 20.1081 9.00015H15C17.6356 9.02601 19.6841 10.1316 21.5172 12.1877C21.6869 12.3752 21.85 12.5627 22 12.7695L25.986 18.2308L28.7967 14.5002L29 14.7674Z" fill="url(#paint0_linear_717_8465)" stroke="url(#paint1_linear_717_8465)" stroke-opacity="0.4" stroke-width="0.5" stroke-linejoin="round"/>
<path d="M48.4435 10.4444C48.4435 10.4423 48.4424 10.4403 48.4406 10.4392C46.9962 9.52915 45.4031 9.06739 43.8099 9.01382H37.6523C39.3373 9.01382 41.0352 9.47615 42.5711 10.4477C43.7615 11.1969 44.7259 12.1732 45.4578 13.2833C45.4602 13.2868 45.4614 13.291 45.4614 13.2952C45.4614 13.2997 45.4628 13.3041 45.4654 13.3077C45.5868 13.4802 45.6893 13.6592 45.7919 13.8381C45.8373 13.9185 45.8826 13.999 45.9215 14.0727C46.0187 14.2536 46.1094 14.4345 46.1937 14.6221C46.2261 14.6958 46.2585 14.7762 46.2909 14.8499C46.5501 15.4596 46.751 16.0895 46.8871 16.7327C46.913 16.8466 46.9325 16.9605 46.9584 17.0745C46.9908 17.2487 47.0167 17.4296 47.0362 17.6038C47.0556 17.7378 47.0621 17.8718 47.0751 18.0058C47.088 18.1733 47.1075 18.3341 47.1139 18.5016C47.1269 18.7764 47.1204 19.0511 47.1139 19.3258C47.1139 19.4598 47.0945 19.5938 47.0815 19.7278C47.0686 19.9087 47.0491 20.0896 47.0232 20.2639C47.0038 20.3979 46.9843 20.5319 46.9584 20.6726C46.926 20.8602 46.8806 21.0478 46.8353 21.2354C46.8094 21.356 46.7834 21.4699 46.7445 21.5905C46.6603 21.8854 46.5696 22.1735 46.4594 22.4549C46.4335 22.5219 46.4011 22.5956 46.3687 22.6626C46.2779 22.8904 46.1743 23.1182 46.0641 23.3394C46.0122 23.4399 45.9539 23.5404 45.9021 23.6476C45.7984 23.8419 45.6817 24.0362 45.5651 24.2238C45.5068 24.3176 45.4484 24.4114 45.3836 24.5052C45.2151 24.7532 45.0272 25.0011 44.8328 25.2423C44.8198 25.2624 44.8069 25.2825 44.7874 25.3026L28.1907 44.9952C27.6269 45.6652 26.8427 45.9935 26.0586 46.0002H31.931C32.7152 46.0002 33.4993 45.6652 34.0631 44.9952L50.6598 25.3026C54.528 20.7137 53.4728 13.6264 48.4463 10.4495C48.4446 10.4484 48.4435 10.4465 48.4435 10.4444Z" fill="#99CEFF"/>
<path d="M27.5002 12.9065C25.6986 10.4407 22.9767 9.08726 20.1771 9.00015H14.6055C17.2236 9.02695 19.7964 10.1727 21.6174 12.3035C21.7859 12.4978 21.9479 12.6921 22.097 12.9065L26.0566 18.3272L29 14.2739" stroke="url(#paint2_linear_717_8465)" stroke-width="0.5" stroke-linecap="round" stroke-linejoin="round"/>
<path d="M9.4151 27.7572L7.34056 25.2956C3.47177 20.7058 4.52807 13.6167 9.55686 10.4407C13.7302 7.80744 19.1543 8.87281 22.0964 12.9132L26.0559 18.3338L30.0155 12.9132H30.0284C32.9705 8.87281 38.4011 7.80744 42.5745 10.4407C47.6033 13.6167 48.6596 20.7058 44.7908 25.2956L28.1945 44.9882C27.0669 46.3216 25.0644 46.3216 23.9369 44.9882L19.7878 40.065L17.7132 37.6034L15.6387 35.1419L13.5642 32.6803" stroke="url(#paint3_linear_717_8465)" stroke-width="0.5" stroke-linecap="round" stroke-linejoin="round"/>
<path d="M48.4435 10.441C46.9983 9.52976 45.4041 9.06743 43.8099 9.01382H40.2413H37.6523C39.3373 9.01382 41.0352 9.47615 42.5711 10.4477C43.7635 11.1982 44.7291 12.1764 45.4614 13.2887V13.3021C45.5845 13.4763 45.6882 13.6572 45.7919 13.8381C45.8373 13.9185 45.8826 13.9989 45.9215 14.0727C46.0187 14.2536 46.1094 14.4345 46.1937 14.6221C46.2261 14.6958 46.2585 14.7762 46.2909 14.8499C46.5501 15.4596 46.751 16.0895 46.8871 16.7327C46.913 16.8466 46.9325 16.9605 46.9584 17.0745C46.9908 17.2487 47.0167 17.4296 47.0362 17.6038C47.0556 17.7378 47.0621 17.8718 47.0751 18.0058C47.088 18.1733 47.1075 18.3341 47.1139 18.5016C47.1269 18.7764 47.1204 19.0511 47.1139 19.3258C47.1139 19.4598 47.0945 19.5938 47.0815 19.7278C47.0686 19.9087 47.0491 20.0896 47.0232 20.2639C47.0038 20.3979 46.9843 20.5319 46.9584 20.6726C46.926 20.8602 46.8806 21.0478 46.8353 21.2354C46.8094 21.356 46.7834 21.4699 46.7445 21.5905C46.6603 21.8854 46.5696 22.1735 46.4594 22.4549C46.4335 22.5219 46.4011 22.5956 46.3687 22.6626C46.2779 22.8904 46.1743 23.1182 46.0641 23.3394C46.0122 23.4399 45.9539 23.5404 45.9021 23.6476C45.7984 23.8419 45.6817 24.0362 45.5651 24.2238C45.5068 24.3176 45.4484 24.4114 45.3836 24.5052C45.2151 24.7532 45.0272 25.0011 44.8328 25.2423C44.8198 25.2624 44.8069 25.2825 44.7874 25.3026L28.1907 44.9952C27.6269 45.6652 26.8427 45.9935 26.0586 46.0002H31.931C32.7152 46.0002 33.4993 45.6652 34.0631 44.9952L50.6598 25.3026C54.5287 20.7128 53.4724 13.6237 48.4435 10.4477V10.441Z" stroke="url(#paint4_linear_717_8465)" stroke-width="0.5" stroke-linecap="round" stroke-linejoin="round"/>
<path fill-rule="evenodd" clip-rule="evenodd" d="M18.3533 23.0602C19.2299 21.6468 21.0537 21.6468 21.9302 23.0602L27.6461 31.3082C28.0389 31.875 28.874 31.8835 29.2782 31.3248L32.2015 27.2846C33.0722 26.0812 34.6734 26.0684 35.5585 27.2578L37.3803 29.7056C37.569 29.9592 37.8664 30.1086 38.1825 30.1086H51.9011C52.508 30.1086 53 30.6752 53 31.3742C53 32.0732 52.508 32.6399 51.9011 32.6399H37.6802C37.0386 32.6399 36.429 32.317 36.0115 31.7559L34.7034 29.9983C34.3002 29.4565 33.4869 29.462 33.091 30.0092L30.1389 34.0893C29.2172 35.3631 27.4988 35.2894 26.6621 33.9401L20.9377 25.68C20.5473 25.1167 19.7187 25.1042 19.3115 25.6555L15.8702 30.3142C15.4576 30.9794 14.7915 31.3742 14.0817 31.3742H4.0989C3.49199 31.3742 3 30.8076 3 30.1086C3 29.4096 3.49199 28.8429 4.0989 28.8429H13.5772C13.8945 28.8429 14.193 28.6923 14.3815 28.4371L18.3533 23.0602Z" fill="url(#paint5_linear_717_8465)" stroke="url(#paint6_linear_717_8465)" stroke-opacity="0.4" stroke-width="0.5" stroke-linejoin="round"/>
<defs>
<linearGradient id="paint0_linear_717_8465" x1="28.5385" y1="17.1001" x2="15.3077" y2="17.1001" gradientUnits="userSpaceOnUse">
<stop stop-color="#008FFF"/>
<stop offset="1" stop-color="#33A5FF"/>
</linearGradient>
<linearGradient id="paint1_linear_717_8465" x1="29.271" y1="18.2308" x2="9.78788" y2="14.6365" gradientUnits="userSpaceOnUse">
<stop stop-color="white"/>
<stop offset="1" stop-color="white" stop-opacity="0"/>
</linearGradient>
<linearGradient id="paint2_linear_717_8465" x1="14.2879" y1="13.6704" x2="28.8368" y2="13.6704" gradientUnits="userSpaceOnUse">
<stop stop-color="#1B217C"/>
<stop offset="1" stop-color="#1B217C" stop-opacity="0"/>
</linearGradient>
<linearGradient id="paint3_linear_717_8465" x1="4.03801" y1="27.5208" x2="48.113" y2="27.5208" gradientUnits="userSpaceOnUse">
<stop stop-color="#1B217C"/>
<stop offset="1" stop-color="#1B217C" stop-opacity="0"/>
</linearGradient>
<linearGradient id="paint4_linear_717_8465" x1="52" y1="45.7772" x2="17.1902" y2="21.5967" gradientUnits="userSpaceOnUse">
<stop stop-color="#1B217C"/>
<stop offset="1" stop-color="#1B217C" stop-opacity="0"/>
</linearGradient>
<linearGradient id="paint5_linear_717_8465" x1="51.3516" y1="33.4078" x2="4.0989" y2="33.4078" gradientUnits="userSpaceOnUse">
<stop stop-color="#008FFF"/>
<stop offset="1" stop-color="#33A5FF"/>
</linearGradient>
<linearGradient id="paint6_linear_717_8465" x1="53.9679" y1="35.0002" x2="-5.06351" y2="7.38412" gradientUnits="userSpaceOnUse">
<stop stop-color="white"/>
<stop offset="1" stop-color="white" stop-opacity="0"/>
</linearGradient>
</defs>
</svg>
