<svg width="56" height="56" viewBox="0 0 56 56" fill="none" xmlns="http://www.w3.org/2000/svg">
<path d="M24.0243 11.7626C25.6112 11.3379 27.2446 12.2684 27.6884 13.8502L37.3821 48.398C37.689 49.4915 37.3507 50.5797 36.6335 51.3115C36.4737 51.4746 36.2478 51.5486 36.0194 51.5486H12.5393C12.0873 51.5486 11.6915 51.2454 11.5738 50.809L3.37233 20.4021C2.94027 18.8002 3.89044 17.1518 5.49312 16.7228L24.0243 11.7626Z" fill="url(#paint0_linear_1023_1041)"/>
<path d="M24.0243 11.7626C25.6112 11.3379 27.2446 12.2684 27.6884 13.8502L37.3821 48.398C37.689 49.4915 37.3507 50.5797 36.6335 51.3115C36.4737 51.4746 36.2478 51.5486 36.0194 51.5486H12.5393C12.0873 51.5486 11.6915 51.2454 11.5738 50.809L3.37233 20.4021C2.94027 18.8002 3.89044 17.1518 5.49312 16.7228L24.0243 11.7626Z" fill="url(#paint1_linear_1023_1041)"/>
<path d="M26.0088 11.2201C27.3172 11.2386 28.5077 12.1184 28.8628 13.4448L38.9212 50.3455C39.0251 50.7337 39.0479 51.1246 39 51.5H15L14.0894 14.5L26.0088 11.2201Z" fill="url(#paint2_linear_1023_1041)"/>
<path d="M3.03425 25.0387C2.89145 24.5052 3.20818 23.9569 3.74168 23.8141L4.57554 23.5909L5.77995 28.0906L4.94609 28.3138C4.41258 28.4566 3.86433 28.1399 3.72153 27.6063L3.03425 25.0387Z" fill="#C2E2FF"/>
<path d="M4.72029 31.3383C4.57749 30.8048 4.89421 30.2565 5.42772 30.1137L6.26158 29.8905L7.2251 33.4902L6.39124 33.7134C5.85774 33.8562 5.30948 33.5395 5.16668 33.006L4.72029 31.3383Z" fill="#C2E2FF"/>
<path opacity="0.6" d="M27.1874 10.7877L5.7873 16.5158C4.18679 16.9442 3.23661 18.589 3.66502 20.1895L11.561 49.6889" stroke="url(#paint3_linear_1023_1041)" stroke-width="0.5" stroke-linecap="round" stroke-linejoin="round"/>
<g style="mix-blend-mode:overlay">
<path d="M6.34797 19.4113C6.20517 18.8778 6.5219 18.3296 7.0554 18.1868L10.523 17.2586C11.0565 17.1158 11.6047 17.4325 11.7475 17.966L13.5925 24.8587C13.7353 25.3922 13.4186 25.9405 12.8851 26.0833L9.41747 27.0114C8.88397 27.1542 8.33571 26.8375 8.19291 26.304L6.34797 19.4113Z" fill="#282828"/>
</g>
<path d="M11.389 24.2714C11.503 24.6975 11.25 25.1354 10.824 25.2494C10.3979 25.3635 9.96001 25.1105 9.84596 24.6844C9.73191 24.2583 9.98487 23.8205 10.411 23.7064C10.837 23.5924 11.2749 23.8453 11.389 24.2714Z" stroke="url(#paint4_linear_1023_1041)" stroke-opacity="0.6" stroke-width="0.5" stroke-linejoin="round"/>
<path d="M10.633 20.1217C10.7988 20.7412 10.431 21.3778 9.81154 21.5436C9.19205 21.7094 8.55544 21.3417 8.38963 20.7222C8.22381 20.1027 8.59158 19.4661 9.21107 19.3003C9.83055 19.1345 10.4672 19.5022 10.633 20.1217Z" stroke="url(#paint5_linear_1023_1041)" stroke-opacity="0.6" stroke-width="0.5" stroke-linejoin="round"/>
<path d="M22 7C22 5.34315 23.3431 4 25 4H46C47.6569 4 49 5.34315 49 7V49C49 50.6569 47.6569 52 46 52H25C23.3431 52 22 50.6569 22 49V7Z" fill="url(#paint6_linear_1023_1041)" stroke="url(#paint7_linear_1023_1041)" stroke-opacity="0.4" stroke-width="0.5" stroke-linejoin="round"/>
<path d="M42 52H46C47.6569 52 49 50.6569 49 49V7C49 5.34315 47.6569 4 46 4H42.4433" stroke="url(#paint8_linear_1023_1041)" stroke-width="0.5" stroke-linecap="round" stroke-linejoin="round"/>
<path d="M16 7C16 5.34315 17.3431 4 19 4H42.0233C43.6801 4 45.0233 5.34315 45.0233 7V49C45.0233 50.6569 43.6801 52 42.0233 52H19C17.3431 52 16 50.6569 16 49V7Z" fill="#DBEEFF"/>
<path opacity="0.35" d="M16 7C16 5.34315 17.3431 4 19 4H42.0233C43.6801 4 45.0233 5.34315 45.0233 7V49C45.0233 50.6569 43.6801 52 42.0233 52H19C17.3431 52 16 50.6569 16 49V7Z" fill="url(#paint9_linear_1023_1041)" stroke="url(#paint10_linear_1023_1041)" stroke-opacity="0.4" stroke-width="0.5" stroke-linejoin="round"/>
<g style="mix-blend-mode:overlay">
<path d="M17 8C17 6.34315 18.3431 5 20 5H41C42.6569 5 44 6.34315 44 8V41.5C44 43.1569 42.6569 44.5 41 44.5H20C18.3431 44.5 17 43.1569 17 41.5V8Z" fill="#4B4B4B"/>
</g>
<path d="M16.4375 5.43813C16.8924 5.16018 17.4272 5 17.9994 5H41.0226C42.6795 5 44.0226 6.34315 44.0226 8V50C44.0226 50.5722 43.8624 51.1069 43.5845 51.5619C44.447 51.0349 45.0226 50.0847 45.0226 49V7C45.0226 5.34315 43.6795 4 42.0226 4H18.9994C17.9147 4 16.9644 4.57566 16.4375 5.43813Z" fill="white"/>
<path d="M18.2344 8.23242C18.2344 7.12785 19.1298 6.23242 20.2344 6.23242H22.9777C23.6197 6.23242 24.2227 6.54063 24.5988 7.06098L25.4012 8.17144C25.7773 8.6918 26.3803 9 27.0223 9H34.3091C35.0429 9 35.7178 8.59815 36.0675 7.95301L36.4325 7.27942C36.7822 6.63427 37.4571 6.23242 38.1909 6.23242H40.7925C41.8971 6.23242 42.7925 7.12785 42.7925 8.23242V41.0696C42.7925 42.1742 41.8971 43.0696 40.7925 43.0696H20.2344C19.1298 43.0696 18.2344 42.1742 18.2344 41.0696V8.23242Z" fill="#DCEEFF"/>
<path d="M18.4141 7.41028C18.6658 7.29604 18.9453 7.23242 19.2397 7.23242H22.4942C22.8152 7.23242 23.1167 7.38652 23.3048 7.6467L24.706 9.58572C24.894 9.8459 25.1955 10 25.5165 10H34.4021C34.769 10 35.1065 9.79907 35.2813 9.4765L35.8509 8.4255C35.4822 8.78829 34.9806 9 34.448 9H27.0257C26.3837 9 25.7807 8.6918 25.4047 8.17144L24.6022 7.06098C24.2262 6.54063 23.6232 6.23242 22.9812 6.23242H20.2378C19.4263 6.23242 18.7276 6.71577 18.4141 7.41028Z" fill="white"/>
<path d="M36.4854 7.43817C36.6569 7.30698 36.8695 7.23242 37.093 7.23242H39.7979C40.9025 7.23242 41.7979 8.12785 41.7979 9.23242V42.0696C41.7979 42.3627 41.7349 42.641 41.6216 42.8918C42.3142 42.5774 42.7959 41.8798 42.7959 41.0696V8.23242C42.7959 7.12785 41.9005 6.23242 40.7959 6.23242H38.3298C37.596 6.23242 36.9211 6.63427 36.5714 7.27942L36.4854 7.43817Z" fill="white"/>
<g style="mix-blend-mode:overlay" opacity="0.7">
<path d="M19.3516 6.4375C18.6897 6.7636 18.2344 7.44493 18.2344 8.23261V41.0698C18.2344 42.1744 19.1298 43.0698 20.2344 43.0698H40.7925C41.8971 43.0698 42.7925 42.1744 42.7925 41.0698V40.7482C42.5263 40.8794 42.2266 40.9531 41.9097 40.9531H21.3516C20.247 40.9531 19.3516 40.0577 19.3516 38.9531V6.4375Z" fill="black"/>
</g>
<path d="M42.7925 41.0696V8.23242C42.7925 7.12785 41.8971 6.23242 40.7925 6.23242H37.5954C37.2285 6.23242 36.8911 6.43335 36.7163 6.75592L35.7837 8.4765C35.6089 8.79907 35.2715 9 34.9046 9H26.5111C26.1901 9 25.8886 8.8459 25.7006 8.58572L24.2994 6.6467C24.1114 6.38652 23.8099 6.23242 23.4889 6.23242H20.2344C19.1298 6.23242 18.2344 7.12785 18.2344 8.23242V41.0696C18.2344 42.1742 19.1298 43.0696 20.2344 43.0696H40.7925C41.8971 43.0696 42.7925 42.1742 42.7925 41.0696Z" stroke="url(#paint11_linear_1023_1041)" stroke-width="0.5" stroke-linecap="round" stroke-linejoin="round"/>
<path d="M32.7464 47.5353C32.7464 48.7683 31.7468 49.7679 30.5138 49.7679C29.2808 49.7679 28.2812 48.7683 28.2812 47.5353C28.2812 46.3023 29.2808 45.3027 30.5138 45.3027C31.7468 45.3027 32.7464 46.3023 32.7464 47.5353Z" fill="url(#paint12_linear_1023_1041)" stroke="url(#paint13_linear_1023_1041)" stroke-opacity="0.4" stroke-width="0.5" stroke-linejoin="round"/>
<g style="mix-blend-mode:overlay" opacity="0.7">
<path d="M20 13.2C20 13.0895 20.0895 13 20.2 13H40.8C40.9105 13 41 13.0895 41 13.2V13.8C41 13.9105 40.9105 14 40.8 14H20.2C20.0895 14 20 13.9105 20 13.8V13.2Z" fill="black"/>
</g>
<g style="mix-blend-mode:overlay" opacity="0.7">
<path d="M21 9.39995V11.7999C21 11.9104 21.0895 11.9999 21.2 11.9999H23.8C23.9105 11.9999 24 11.9104 24 11.7999V11.3499C24 11.287 23.9704 11.2277 23.92 11.1899L21.32 9.23995C21.1882 9.14106 21 9.23514 21 9.39995Z" fill="black"/>
</g>
<path d="M48 12C48 11.4477 47.5523 11 47 11C46.4477 11 46 11.4477 46 12V15C46 15.5523 46.4477 16 47 16C47.5523 16 48 15.5523 48 15V12Z" fill="url(#paint14_linear_1023_1041)" stroke="url(#paint15_linear_1023_1041)" stroke-opacity="0.4" stroke-width="0.3" stroke-linejoin="round"/>
<path d="M48 19C48 18.4477 47.5523 18 47 18C46.4477 18 46 18.4477 46 19V21C46 21.5523 46.4477 22 47 22C47.5523 22 48 21.5523 48 21V19Z" fill="url(#paint16_linear_1023_1041)" stroke="url(#paint17_linear_1023_1041)" stroke-opacity="0.4" stroke-width="0.3" stroke-linejoin="round"/>
<g style="mix-blend-mode:overlay" opacity="0.7">
<path d="M37 10.2C37 10.0895 37.0895 10 37.2 10H39.8C39.9105 10 40 10.0895 40 10.2V11.8C40 11.9105 39.9105 12 39.8 12H37.2C37.0895 12 37 11.9105 37 11.8V10.2Z" fill="black"/>
</g>
<path d="M27 7C27 6.44772 27.4477 6 28 6H31C31.5523 6 32 6.44772 32 7C32 7.55228 31.5523 8 31 8H28C27.4477 8 27 7.55228 27 7Z" fill="url(#paint18_linear_1023_1041)" stroke="url(#paint19_linear_1023_1041)" stroke-opacity="0.4" stroke-width="0.3" stroke-linejoin="round"/>
<path d="M35 7C35 7.55228 34.5523 8 34 8C33.4477 8 33 7.55228 33 7C33 6.44772 33.4477 6 34 6C34.5523 6 35 6.44772 35 7Z" fill="url(#paint20_linear_1023_1041)" stroke="url(#paint21_linear_1023_1041)" stroke-opacity="0.4" stroke-width="0.3" stroke-linejoin="round"/>
<path d="M16 7C16 5.34315 17.3431 4 19 4H42.0233C43.6801 4 45.0233 5.34315 45.0233 7V49C45.0233 50.6569 43.6801 52 42.0233 52H19C17.3431 52 16 50.6569 16 49V7Z" stroke="url(#paint22_linear_1023_1041)" stroke-width="0.5" stroke-linecap="round" stroke-linejoin="round"/>
<defs>
<linearGradient id="paint0_linear_1023_1041" x1="9.61133" y1="36.5008" x2="16.9139" y2="51.8426" gradientUnits="userSpaceOnUse">
<stop stop-color="#DBEEFF"/>
<stop offset="1" stop-color="#DBEEFF" stop-opacity="0"/>
</linearGradient>
<linearGradient id="paint1_linear_1023_1041" x1="9.61133" y1="36.5008" x2="16.9139" y2="51.8426" gradientUnits="userSpaceOnUse">
<stop stop-color="#DBEEFF"/>
<stop offset="1" stop-color="#DBEEFF" stop-opacity="0"/>
</linearGradient>
<linearGradient id="paint2_linear_1023_1041" x1="26.5567" y1="11.2201" x2="17" y2="51" gradientUnits="userSpaceOnUse">
<stop stop-color="#C3E3FF"/>
<stop offset="1" stop-color="#C3E3FF" stop-opacity="0"/>
</linearGradient>
<linearGradient id="paint3_linear_1023_1041" x1="58.0894" y1="-1.5" x2="1.08936" y2="39.5" gradientUnits="userSpaceOnUse">
<stop stop-color="#1B217C"/>
<stop offset="1" stop-color="#1B217C" stop-opacity="0"/>
</linearGradient>
<linearGradient id="paint4_linear_1023_1041" x1="11.6253" y1="25.0348" x2="9.36602" y2="25.3544" gradientUnits="userSpaceOnUse">
<stop stop-color="white"/>
<stop offset="1" stop-color="white" stop-opacity="0"/>
</linearGradient>
<linearGradient id="paint5_linear_1023_1041" x1="10.9766" y1="21.2317" x2="7.69188" y2="21.6963" gradientUnits="userSpaceOnUse">
<stop stop-color="white"/>
<stop offset="1" stop-color="white" stop-opacity="0"/>
</linearGradient>
<linearGradient id="paint6_linear_1023_1041" x1="37" y1="76" x2="46.5" y2="14.5" gradientUnits="userSpaceOnUse">
<stop stop-color="#008FFF"/>
<stop offset="1" stop-color="#8BCEFF"/>
</linearGradient>
<linearGradient id="paint7_linear_1023_1041" x1="49.5299" y1="52" x2="10.3536" y2="49.2843" gradientUnits="userSpaceOnUse">
<stop stop-color="white"/>
<stop offset="1" stop-color="white" stop-opacity="0"/>
</linearGradient>
<linearGradient id="paint8_linear_1023_1041" x1="73.5" y1="-33" x2="60.4353" y2="82.5838" gradientUnits="userSpaceOnUse">
<stop stop-color="#1B217C"/>
<stop offset="1" stop-color="#1B217C" stop-opacity="0"/>
</linearGradient>
<linearGradient id="paint9_linear_1023_1041" x1="44.0664" y1="46.1204" x2="16.6379" y2="46.1204" gradientUnits="userSpaceOnUse">
<stop stop-color="#008FFF"/>
<stop offset="1" stop-color="#8BCEFF"/>
</linearGradient>
<linearGradient id="paint10_linear_1023_1041" x1="45.5851" y1="52" x2="4.0449" y2="48.9449" gradientUnits="userSpaceOnUse">
<stop stop-color="white"/>
<stop offset="1" stop-color="white" stop-opacity="0"/>
</linearGradient>
<linearGradient id="paint11_linear_1023_1041" x1="-6" y1="129" x2="-9.08995" y2="-0.459593" gradientUnits="userSpaceOnUse">
<stop stop-color="#1B217C"/>
<stop offset="1" stop-color="#1B217C" stop-opacity="0"/>
</linearGradient>
<linearGradient id="paint12_linear_1023_1041" x1="32.5992" y1="49.2209" x2="28.3794" y2="49.2209" gradientUnits="userSpaceOnUse">
<stop stop-color="#008FFF"/>
<stop offset="1" stop-color="#33A5FF"/>
</linearGradient>
<linearGradient id="paint13_linear_1023_1041" x1="32.8328" y1="49.7679" x2="26.5011" y2="48.9977" gradientUnits="userSpaceOnUse">
<stop stop-color="white"/>
<stop offset="1" stop-color="white" stop-opacity="0"/>
</linearGradient>
<linearGradient id="paint14_linear_1023_1041" x1="46.1953" y1="15.3875" x2="47.959" y2="15.3875" gradientUnits="userSpaceOnUse">
<stop stop-color="#008FFF"/>
<stop offset="1" stop-color="#33A5FF"/>
</linearGradient>
<linearGradient id="paint15_linear_1023_1041" x1="46.0976" y1="16" x2="48.7777" y2="15.8783" gradientUnits="userSpaceOnUse">
<stop stop-color="white"/>
<stop offset="1" stop-color="white" stop-opacity="0"/>
</linearGradient>
<linearGradient id="paint16_linear_1023_1041" x1="46.1953" y1="21.51" x2="47.959" y2="21.51" gradientUnits="userSpaceOnUse">
<stop stop-color="#008FFF"/>
<stop offset="1" stop-color="#33A5FF"/>
</linearGradient>
<linearGradient id="paint17_linear_1023_1041" x1="46.0976" y1="22" x2="48.7746" y2="21.8481" gradientUnits="userSpaceOnUse">
<stop stop-color="white"/>
<stop offset="1" stop-color="white" stop-opacity="0"/>
</linearGradient>
<linearGradient id="paint18_linear_1023_1041" x1="31.0118" y1="7.75502" x2="26.6025" y2="7.75502" gradientUnits="userSpaceOnUse">
<stop stop-color="#008FFF"/>
<stop offset="1" stop-color="#33A5FF"/>
</linearGradient>
<linearGradient id="paint19_linear_1023_1041" x1="31.2559" y1="8" x2="25.0423" y2="6.2369" gradientUnits="userSpaceOnUse">
<stop stop-color="white"/>
<stop offset="1" stop-color="white" stop-opacity="0"/>
</linearGradient>
<linearGradient id="paint20_linear_1023_1041" x1="35.3047" y1="7.75502" x2="33.541" y2="7.75502" gradientUnits="userSpaceOnUse">
<stop stop-color="#008FFF"/>
<stop offset="1" stop-color="#33A5FF"/>
</linearGradient>
<linearGradient id="paint21_linear_1023_1041" x1="35.4024" y1="8" x2="32.751" y2="7.69907" gradientUnits="userSpaceOnUse">
<stop stop-color="white"/>
<stop offset="1" stop-color="white" stop-opacity="0"/>
</linearGradient>
<linearGradient id="paint22_linear_1023_1041" x1="75" y1="-41" x2="41.8528" y2="106.987" gradientUnits="userSpaceOnUse">
<stop stop-color="#1B217C"/>
<stop offset="1" stop-color="#1B217C" stop-opacity="0"/>
</linearGradient>
</defs>
</svg>
