<svg width="56" height="56" viewBox="0 0 56 56" fill="none" xmlns="http://www.w3.org/2000/svg">
<path d="M21.4653 25.3797L30.2718 32.7036H32.5445L36.0024 25.3797H48.6734L52.5102 33.4522C53.1775 34.8593 53.163 36.4985 52.4667 37.8911L50.5302 41.7642L50.4747 41.7362L50.4767 41.7942H28.6137C27.1429 41.7942 25.7468 41.1467 24.7968 40.0239L21.5228 36.1547C20.5843 35.0456 20.1747 33.5832 20.4005 32.148L21.4653 25.3797Z" fill="#99CEFF"/>
<path d="M30.9295 10.5109L30.0446 12.9769L28.2966 14.1446" stroke="url(#paint0_linear_718_7521)" stroke-width="0.5" stroke-linecap="round" stroke-linejoin="round"/>
<path d="M6.54663 11.0258L7.39523 13.4991L8.94737 14.7321" stroke="url(#paint1_linear_718_7521)" stroke-width="0.5" stroke-linecap="round" stroke-linejoin="round"/>
<path d="M38.0521 45C38.0195 45.2116 38 45.4293 38 45.653C38 48.0532 39.7915 50 42 50C44.2085 50 46 48.0532 46 45.653C46 45.4293 45.9805 45.2116 45.9479 45H38.0521Z" fill="#99D2FF"/>
<path d="M40.0267 45C40.0296 45 40.0318 45.0025 40.0315 45.0053C40.0156 45.1421 40 45.2839 40 45.4256C40 46.8462 40.893 48 42 48C43.107 48 44 46.8462 44 45.4256C44 45.1798 43.7865 45 43.5406 45H40.0267Z" fill="url(#paint2_linear_718_7521)" stroke="url(#paint3_linear_718_7521)" stroke-opacity="0.4" stroke-width="0.5" stroke-linejoin="round"/>
<path d="M4.80511 29.1586L13.2303 17.3633H22.8882L22.4035 19.2578L20.4499 32.0374C20.2424 33.395 20.6024 34.7782 21.4456 35.8624L24.5347 39.8346C25.482 41.0527 26.9386 41.7652 28.4816 41.7652H50.678C51.4023 41.7652 51.8863 42.5113 51.5911 43.1727L51.3918 43.6193C51.0702 44.34 50.3547 44.8042 49.5655 44.8042H20.5782C19.5586 44.8042 18.6089 44.2864 18.0565 43.4294L15.5 40.5C14.9662 36.5507 12.8995 34.0542 9.62537 34.0542C7.65104 34.0542 5.87852 35.1472 4.66529 36.881C3.11749 34.5415 3.15525 31.4684 4.80511 29.1586Z" fill="#E5F4FF"/>
<path d="M4.80511 29.1586L13.2303 17.3633H15.2303L6.80511 29.1586C5.4721 31.0248 5.19146 33.3893 5.94917 35.4626C5.47426 35.8643 5.04271 36.3417 4.66529 36.881C3.11749 34.5415 3.15525 31.4684 4.80511 29.1586Z" fill="white"/>
<path d="M4.66407 36.8815C3.11627 34.542 3.15403 31.4688 4.80389 29.159L12.1759 18.8382" stroke="url(#paint4_linear_718_7521)" stroke-width="0.5" stroke-linecap="round" stroke-linejoin="round"/>
<path d="M17.7722 35.3208L18.9085 29.4156L21.1812 17.6052H22.6553L20.5792 31.1864C20.2886 33.087 20.7927 35.0236 21.973 36.5414L23.9333 39.0621C25.2595 40.7674 27.2988 41.7649 29.4591 41.7649H50.7477C51.4389 41.7649 51.9008 42.4768 51.6191 43.108V43.108C51.1587 44.1395 50.1347 44.8039 49.005 44.8039H21.07C19.7434 44.8039 18.5075 44.1301 17.7888 43.015V43.015" stroke="url(#paint5_linear_718_7521)" stroke-width="0.5" stroke-linecap="round" stroke-linejoin="round"/>
<path d="M22.6561 17.6052L20.5799 31.1864C20.2894 33.087 20.7934 35.0236 21.9738 36.5414L23.9341 39.0621C25.2602 40.7674 27.2995 41.7649 29.4598 41.7649H50.7485C51.4396 41.7649 51.9015 42.4768 51.6198 43.108V43.108C51.1594 44.1395 50.1354 44.8039 49.0058 44.8039H34.8511" stroke="url(#paint6_linear_718_7521)" stroke-width="0.5" stroke-linecap="round" stroke-linejoin="round"/>
<path d="M21.4653 25.3797L30.2718 32.7036H32.5445M50.5302 41.7642L52.4667 37.8911C53.163 36.4985 53.1775 34.8593 52.5102 33.4522L48.5 25.4998" stroke="url(#paint7_linear_718_7521)" stroke-width="0.5" stroke-linecap="round" stroke-linejoin="round"/>
<path d="M9.5 50C13.0899 50 16 46.4183 16 42C16 37.5817 13.0899 34 9.5 34C5.91015 34 3 37.5817 3 42C3 46.4183 5.91015 50 9.5 50Z" fill="#99D2FF"/>
<path d="M9.5 47C11.433 47 13 44.7614 13 42C13 39.2386 11.433 37 9.5 37C7.567 37 6 39.2386 6 42C6 44.7614 7.567 47 9.5 47Z" fill="url(#paint8_linear_718_7521)" stroke="url(#paint9_linear_718_7521)" stroke-opacity="0.4" stroke-width="0.5" stroke-linejoin="round"/>
<path d="M14.3222 21.5841C15.2692 22.0834 15.796 23.4457 15.5313 24.911C15.2653 26.3833 14.2872 27.4785 13.2195 27.6065C13.3755 27.6887 13.543 27.7476 13.7201 27.7796C14.9727 28.0059 16.2381 26.8057 16.5464 25.099C16.8548 23.3923 16.0893 21.8253 14.8367 21.599C14.6646 21.5679 14.4922 21.5638 14.3222 21.5841Z" fill="#6AB7FF"/>
<g filter="url(#filter0_d_718_7521)">
<path d="M15.5333 24.9097C15.8416 23.203 15.0761 21.636 13.8235 21.4097C12.5709 21.1834 11.3055 22.3835 10.9972 24.0902C10.6889 25.797 11.4544 27.364 12.707 27.5902C13.9596 27.8165 15.2249 26.6164 15.5333 24.9097Z" fill="url(#paint10_linear_718_7521)"/>
<path d="M15.5333 24.9097C15.8416 23.203 15.0761 21.636 13.8235 21.4097C12.5709 21.1834 11.3055 22.3835 10.9972 24.0902C10.6889 25.797 11.4544 27.364 12.707 27.5902C13.9596 27.8165 15.2249 26.6164 15.5333 24.9097Z" fill="url(#paint11_linear_718_7521)"/>
</g>
<path d="M3.90552 15.7339C3.90552 15.1754 4.3552 14.7257 4.91368 14.7257H7.93093C9.04064 14.7257 10.1286 14.4356 11.0932 13.8916L15.2419 11.5417C16.8013 10.6568 18.6871 10.5625 20.3263 11.2878L25.5702 13.6015C26.3825 13.9569 27.2674 14.1455 28.1523 14.1455H30.8576C31.4161 14.1455 31.8658 14.5952 31.8658 15.1536V15.2842C31.8658 15.8137 31.4596 16.2488 30.9302 16.2851L26.0199 16.626C25.592 16.655 25.164 16.7275 24.7506 16.8436L18.4188 18.5988C17.4469 18.8672 16.4169 18.8744 15.445 18.6133L10.2156 17.2207C9.81671 17.112 9.41054 17.0467 9.00437 17.0177L4.84841 16.7348C4.31894 16.6985 3.91277 16.2634 3.91277 15.7339H3.90552Z" fill="#99CEFF"/>
<g style="mix-blend-mode:overlay">
<path d="M3.90625 15.7337C3.90625 15.1753 4.35594 14.7256 4.91442 14.7256H7.93166C9.04137 14.7256 10.1293 14.4354 11.094 13.8915L15.2427 11.5415C16.8021 10.6566 18.6878 10.5623 20.327 11.2876L25.5709 13.6014C26.3833 13.9567 27.2681 14.1453 28.153 14.1453H30.8584C31.4169 14.1453 31.8665 14.595 31.8665 15.1535V15.284C31.8665 15.8135 31.4604 16.2487 30.9309 16.285L26.0206 16.6258C25.5927 16.6549 25.1648 16.7274 24.7514 16.8434L18.4195 18.5987C17.4476 18.867 16.4177 18.8743 15.4458 18.6132L10.2164 17.2206C9.81744 17.1118 9.41127 17.0465 9.0051 17.0175L4.84914 16.7346C4.31967 16.6984 3.9135 16.2632 3.9135 15.7337H3.90625Z" fill="url(#paint12_linear_718_7521)"/>
</g>
<path d="M4.91442 14.7256C4.35594 14.7256 3.90625 15.1753 3.90625 15.7337H3.9135C3.9135 15.9128 3.95997 16.0811 4.04195 16.2268C4.21619 15.9266 4.54098 15.7256 4.91442 15.7256H7.93166C9.04137 15.7256 10.1293 15.4354 11.094 14.8915L15.2427 12.5415C16.8021 11.6566 18.6878 11.5623 20.327 12.2876L25.5709 14.6014C26.3833 14.9567 27.2681 15.1453 28.153 15.1453H30.8584C31.2608 15.1453 31.6068 15.3788 31.7687 15.7183C31.8315 15.5868 31.8665 15.4395 31.8665 15.284V15.1535C31.8665 14.595 31.4169 14.1453 30.8584 14.1453H28.153C27.2681 14.1453 26.3833 13.9567 25.5709 13.6014L20.327 11.2876C18.6878 10.5623 16.8021 10.6566 15.2427 11.5415L11.094 13.8915C10.1293 14.4354 9.04137 14.7256 7.93166 14.7256H4.91442Z" fill="white"/>
<path d="M3.90552 15.7339C3.90552 15.1754 4.3552 14.7257 4.91368 14.7257H7.93093C9.04064 14.7257 10.1286 14.4356 11.0932 13.8916L15.2419 11.5417C16.8013 10.6568 18.6871 10.5625 20.3263 11.2878L25.5702 13.6015C26.3825 13.9569 27.2674 14.1455 28.1523 14.1455H30.8576C31.4161 14.1455 31.8658 14.5952 31.8658 15.1536V15.2842C31.8658 15.8137 31.4596 16.2488 30.9302 16.2851L26.0199 16.626C25.592 16.655 25.164 16.7275 24.7506 16.8436L18.4188 18.5988C17.4469 18.8672 16.4169 18.8744 15.445 18.6133L10.2156 17.2207C9.81671 17.112 9.41054 17.0467 9.00437 17.0177L4.84841 16.7348C4.31894 16.6985 3.91277 16.2634 3.91277 15.7339H3.90552Z" stroke="url(#paint13_linear_718_7521)" stroke-width="0.5" stroke-linecap="round" stroke-linejoin="round"/>
<g style="mix-blend-mode:overlay">
<path d="M8.43084 15.8425C8.26561 15.8555 8.09954 15.862 7.93298 15.862H4.91573C4.57092 15.862 4.26757 16.0334 4.08594 16.296C4.25321 16.5438 4.52913 16.7128 4.85046 16.7348L9.00642 17.0176C9.41259 17.0466 9.81876 17.1119 10.2177 17.2207L15.4471 18.6133C16.419 18.8744 17.4489 18.8671 18.4208 18.5988L24.7527 16.8436C25.1661 16.7275 25.594 16.655 26.0219 16.626L30.9322 16.2851C31.2788 16.2613 31.5726 16.0667 31.7341 15.7865C31.5604 15.4844 31.2346 15.2818 30.8597 15.2818H29.0219L26.0219 15.49C25.594 15.519 25.1661 15.5916 24.7527 15.7076L18.4208 17.4629C17.4489 17.7312 16.419 17.7385 15.4471 17.4774L10.2177 16.0848C9.81876 15.976 9.41259 15.9107 9.00642 15.8817L8.43084 15.8425Z" fill="black"/>
</g>
<g filter="url(#filter1_d_718_7521)">
<path d="M6.24685 10.874C7.41251 10.874 8.35747 9.78293 8.35747 8.43701C8.35747 7.09108 7.41251 6 6.24685 6C5.08119 6 4.13623 7.09108 4.13623 8.43701C4.13623 9.78293 5.08119 10.874 6.24685 10.874Z" fill="#FFBB00"/>
</g>
<g filter="url(#filter2_d_718_7521)">
<path d="M31.2461 10.874C32.4118 10.874 33.3567 9.78293 33.3567 8.43701C33.3567 7.09108 32.4118 6 31.2461 6C30.0805 6 29.1355 7.09108 29.1355 8.43701C29.1355 9.78293 30.0805 10.874 31.2461 10.874Z" fill="#FFBB00"/>
</g>
<path d="M32.5799 32.7036H39.1577C39.612 32.7036 40.0092 32.3974 40.1248 31.9581L41.856 25.3797H36.6343C36.2473 25.3797 35.8951 25.6029 35.7299 25.9529L32.5596 32.6715C32.5525 32.6865 32.5634 32.7036 32.5799 32.7036Z" fill="#E5F4FF"/>
<g filter="url(#filter3_d_718_7521)">
<path d="M34.543 32.7039H32.543L35.999 25.3799H37.999L34.543 32.7039Z" fill="white"/>
</g>
<path d="M35.9995 25.5001L32.5444 32.7036H32.5799H38.4226C39.3143 32.7036 40.0983 32.1132 40.3447 31.2562L41.9995 25.5001" stroke="url(#paint14_linear_718_7521)" stroke-width="0.5" stroke-linecap="round" stroke-linejoin="round"/>
<path d="M40.2378 22.3402H37.5743C36.9287 22.3402 36.3385 22.705 36.0498 23.2824C35.4831 24.4158 36.3072 25.7492 37.5743 25.7492H47.7207C48.5111 25.7492 49.2273 25.2837 49.5483 24.5615L50.0432 23.448C50.631 22.1254 49.6629 20.6357 48.2156 20.6357H43.5991C43.0687 20.6357 42.56 20.8465 42.1849 21.2215L41.652 21.7544C41.2769 22.1295 40.7682 22.3402 40.2378 22.3402Z" fill="url(#paint15_linear_718_7521)" stroke="url(#paint16_linear_718_7521)" stroke-opacity="0.4" stroke-width="0.5" stroke-linejoin="round"/>
<g style="mix-blend-mode:overlay">
<path d="M36.5209 22.3402L35.9018 23.5784C35.4031 24.5757 36.1284 25.7492 37.2435 25.7492H49.0205L50.0432 23.448C50.631 22.1254 49.6629 20.6357 48.2156 20.6357H42.7707L41.0662 22.3402H36.5209Z" fill="url(#paint17_linear_718_7521)"/>
</g>
<defs>
<filter id="filter0_d_718_7521" x="9.42896" y="20.3823" width="6.67261" height="8.23537" filterUnits="userSpaceOnUse" color-interpolation-filters="sRGB">
<feFlood flood-opacity="0" result="BackgroundImageFix"/>
<feColorMatrix in="SourceAlpha" type="matrix" values="0 0 0 0 0 0 0 0 0 0 0 0 0 0 0 0 0 0 127 0" result="hardAlpha"/>
<feOffset dx="-0.5"/>
<feGaussianBlur stdDeviation="0.5"/>
<feComposite in2="hardAlpha" operator="out"/>
<feColorMatrix type="matrix" values="0 0 0 0 1 0 0 0 0 0.780392 0 0 0 0 0.164706 0 0 0 0.3 0"/>
<feBlend mode="normal" in2="BackgroundImageFix" result="effect1_dropShadow_718_7521"/>
<feBlend mode="normal" in="SourceGraphic" in2="effect1_dropShadow_718_7521" result="shape"/>
</filter>
<filter id="filter1_d_718_7521" x="2.63623" y="5" width="6.22119" height="6.87401" filterUnits="userSpaceOnUse" color-interpolation-filters="sRGB">
<feFlood flood-opacity="0" result="BackgroundImageFix"/>
<feColorMatrix in="SourceAlpha" type="matrix" values="0 0 0 0 0 0 0 0 0 0 0 0 0 0 0 0 0 0 127 0" result="hardAlpha"/>
<feOffset dx="-0.5"/>
<feGaussianBlur stdDeviation="0.5"/>
<feComposite in2="hardAlpha" operator="out"/>
<feColorMatrix type="matrix" values="0 0 0 0 1 0 0 0 0 0.780392 0 0 0 0 0.164706 0 0 0 0.4 0"/>
<feBlend mode="normal" in2="BackgroundImageFix" result="effect1_dropShadow_718_7521"/>
<feBlend mode="normal" in="SourceGraphic" in2="effect1_dropShadow_718_7521" result="shape"/>
</filter>
<filter id="filter2_d_718_7521" x="27.6355" y="5" width="6.22119" height="6.87401" filterUnits="userSpaceOnUse" color-interpolation-filters="sRGB">
<feFlood flood-opacity="0" result="BackgroundImageFix"/>
<feColorMatrix in="SourceAlpha" type="matrix" values="0 0 0 0 0 0 0 0 0 0 0 0 0 0 0 0 0 0 127 0" result="hardAlpha"/>
<feOffset dx="-0.5"/>
<feGaussianBlur stdDeviation="0.5"/>
<feComposite in2="hardAlpha" operator="out"/>
<feColorMatrix type="matrix" values="0 0 0 0 1 0 0 0 0 0.780392 0 0 0 0 0.164706 0 0 0 0.4 0"/>
<feBlend mode="normal" in2="BackgroundImageFix" result="effect1_dropShadow_718_7521"/>
<feBlend mode="normal" in="SourceGraphic" in2="effect1_dropShadow_718_7521" result="shape"/>
</filter>
<filter id="filter3_d_718_7521" x="32.543" y="24.3799" width="9.45605" height="11.324" filterUnits="userSpaceOnUse" color-interpolation-filters="sRGB">
<feFlood flood-opacity="0" result="BackgroundImageFix"/>
<feColorMatrix in="SourceAlpha" type="matrix" values="0 0 0 0 0 0 0 0 0 0 0 0 0 0 0 0 0 0 127 0" result="hardAlpha"/>
<feOffset dx="2" dy="1"/>
<feGaussianBlur stdDeviation="1"/>
<feComposite in2="hardAlpha" operator="out"/>
<feColorMatrix type="matrix" values="0 0 0 0 0 0 0 0 0 0.4 0 0 0 0 1 0 0 0 0.07 0"/>
<feBlend mode="normal" in2="BackgroundImageFix" result="effect1_dropShadow_718_7521"/>
<feBlend mode="normal" in="SourceGraphic" in2="effect1_dropShadow_718_7521" result="shape"/>
</filter>
<linearGradient id="paint0_linear_718_7521" x1="27.934" y1="12.3241" x2="31.2921" y2="12.3241" gradientUnits="userSpaceOnUse">
<stop stop-color="#1B217C"/>
<stop offset="1" stop-color="#1B217C" stop-opacity="0"/>
</linearGradient>
<linearGradient id="paint1_linear_718_7521" x1="3.00006" y1="13.9543" x2="9.31002" y2="12.8826" gradientUnits="userSpaceOnUse">
<stop stop-color="#1B217C"/>
<stop offset="1" stop-color="#1B217C" stop-opacity="0"/>
</linearGradient>
<linearGradient id="paint2_linear_718_7521" x1="43.8681" y1="47.6325" x2="40.0879" y2="47.6325" gradientUnits="userSpaceOnUse">
<stop stop-color="#008FFF"/>
<stop offset="1" stop-color="#33A5FF"/>
</linearGradient>
<linearGradient id="paint3_linear_718_7521" x1="44.0774" y1="48" x2="38.4689" y2="47.0904" gradientUnits="userSpaceOnUse">
<stop stop-color="white"/>
<stop offset="1" stop-color="white" stop-opacity="0"/>
</linearGradient>
<linearGradient id="paint4_linear_718_7521" x1="17.6194" y1="33.0136" x2="2.57363" y2="21.597" gradientUnits="userSpaceOnUse">
<stop stop-color="#1B217C"/>
<stop offset="1" stop-color="#1B217C" stop-opacity="0"/>
</linearGradient>
<linearGradient id="paint5_linear_718_7521" x1="74.6316" y1="38.9734" x2="56.1979" y2="0.767967" gradientUnits="userSpaceOnUse">
<stop stop-color="#1B217C"/>
<stop offset="1" stop-color="#1B217C" stop-opacity="0"/>
</linearGradient>
<linearGradient id="paint6_linear_718_7521" x1="76.1719" y1="38.1405" x2="53.7327" y2="-3.63428" gradientUnits="userSpaceOnUse">
<stop stop-color="#1B217C"/>
<stop offset="1" stop-color="#1B217C" stop-opacity="0"/>
</linearGradient>
<linearGradient id="paint7_linear_718_7521" x1="73.7586" y1="38.2755" x2="65.6258" y2="12.4077" gradientUnits="userSpaceOnUse">
<stop stop-color="#1B217C"/>
<stop offset="1" stop-color="#1B217C" stop-opacity="0"/>
</linearGradient>
<linearGradient id="paint8_linear_718_7521" x1="12.7692" y1="45.7751" x2="6.15385" y2="45.7751" gradientUnits="userSpaceOnUse">
<stop stop-color="#008FFF"/>
<stop offset="1" stop-color="#33A5FF"/>
</linearGradient>
<linearGradient id="paint9_linear_718_7521" x1="13.1355" y1="47" x2="3.1349" y2="46.1485" gradientUnits="userSpaceOnUse">
<stop stop-color="white"/>
<stop offset="1" stop-color="white" stop-opacity="0"/>
</linearGradient>
<linearGradient id="paint10_linear_718_7521" x1="15.4475" y1="26.8539" x2="11.0316" y2="26.8539" gradientUnits="userSpaceOnUse">
<stop stop-color="#FFBB00"/>
<stop offset="1" stop-color="#FFE18F"/>
</linearGradient>
<linearGradient id="paint11_linear_718_7521" x1="15.4475" y1="26.8539" x2="11.0316" y2="26.8539" gradientUnits="userSpaceOnUse">
<stop stop-color="#FFBB00"/>
<stop offset="1" stop-color="#FFE18F"/>
</linearGradient>
<linearGradient id="paint12_linear_718_7521" x1="27.8722" y1="11.6074" x2="25.9723" y2="22.7976" gradientUnits="userSpaceOnUse">
<stop/>
<stop offset="1" stop-opacity="0"/>
</linearGradient>
<linearGradient id="paint13_linear_718_7521" x1="52.7331" y1="16.8446" x2="49.9527" y2="1.51472" gradientUnits="userSpaceOnUse">
<stop stop-color="#1B217C"/>
<stop offset="1" stop-color="#1B217C" stop-opacity="0"/>
</linearGradient>
<linearGradient id="paint14_linear_718_7521" x1="47.7212" y1="31.1335" x2="42.6696" y2="20.9588" gradientUnits="userSpaceOnUse">
<stop stop-color="#1B217C"/>
<stop offset="1" stop-color="#1B217C" stop-opacity="0"/>
</linearGradient>
<linearGradient id="paint15_linear_718_7521" x1="50.7499" y1="25.1228" x2="35.1785" y2="25.1228" gradientUnits="userSpaceOnUse">
<stop stop-color="#008FFF"/>
<stop offset="1" stop-color="#33A5FF"/>
</linearGradient>
<linearGradient id="paint16_linear_718_7521" x1="51.6121" y1="25.7492" x2="31.059" y2="17.6939" gradientUnits="userSpaceOnUse">
<stop stop-color="white"/>
<stop offset="1" stop-color="white" stop-opacity="0"/>
</linearGradient>
<linearGradient id="paint17_linear_718_7521" x1="48.9393" y1="21.1494" x2="47.6288" y2="28.2661" gradientUnits="userSpaceOnUse">
<stop/>
<stop offset="1" stop-opacity="0"/>
</linearGradient>
</defs>
</svg>
