<svg width="56" height="56" viewBox="0 0 56 56" fill="none" xmlns="http://www.w3.org/2000/svg">
<path d="M28.2642 52.4661L18.1208 46.6597L22.9684 27.4661L28.2642 30.1832V52.4661Z" fill="#DBEEFF"/>
<path d="M33.5641 27.4679L27.999 30.2169V52.4998L38.4166 46.6614L33.5641 27.4679Z" fill="#DBEEFF"/>
<path d="M33.5688 27.4665L33.5654 27.4672L33.5676 27.4661L33.5688 27.4665Z" fill="#DBEEFF"/>
<path d="M33.5603 27.4646L38.4125 46.6582L52.9964 52.4646L43.2463 30.6904L33.5603 27.4646Z" fill="#E5F4FF"/>
<path d="M22.9756 27.4646L13.2896 30.6904L3.53955 52.4646L18.128 46.6582L22.9756 27.4646Z" fill="#DBEEFF"/>
<g style="mix-blend-mode:overlay" opacity="0.6">
<path d="M22.9761 27.4648L13.2901 30.6907L3.54004 52.4649L18.1285 46.6584L22.9761 27.4648Z" fill="white"/>
</g>
<g style="mix-blend-mode:overlay">
<path d="M8.17628 42.1069L10.6275 43.7509L12.53 43.1119L12.0498 49.0796L3.53906 52.4667L8.17628 42.1069Z" fill="black"/>
</g>
<path d="M33.5601 27.4646L38.4122 46.6582L52.9961 52.4646L43.2461 30.6904L33.5601 27.4646Z" fill="#DBEEFF"/>
<g style="mix-blend-mode:overlay" opacity="0.6">
<path d="M33.5605 27.4648L38.4127 46.6584L52.9966 52.4649L43.2466 30.6907L33.5605 27.4648Z" fill="white"/>
</g>
<g style="mix-blend-mode:overlay">
<path d="M41.7852 47.9995L41.7864 46.2008L43.4327 44.2405L41.7864 40.0222H44.2513L46.2681 38.0371L52.9941 52.4659L41.7852 47.9995Z" fill="black"/>
</g>
<path d="M12.2072 30.6911L22.4764 27.1805C22.7409 27.09 23.0313 27.1145 23.277 27.2479L28.2647 29.9556L33.6411 27.0386L44.2519 30.6911L52.9975 52.5626L50.847 51.8333L43.2607 31.7223L34.1784 29.2263L28.1826 31.7589L22.3539 29.2263L13.2824 31.4141L5.68804 51.8333L3.67927 52.7053C3.43203 52.8126 3.17968 52.5648 3.2825 52.3156L12.2072 30.6911Z" fill="white"/>
<g style="mix-blend-mode:overlay">
<path d="M28.269 37.973L25 44.9998H22.8689L22.123 48.9464L28.269 52.4635V37.973Z" fill="black"/>
</g>
<g style="mix-blend-mode:overlay" opacity="0.4">
<path d="M28.2727 37.9726L28.2742 37.9724L28.2742 37.974L28.2727 37.9726Z" fill="black"/>
<path d="M28.2742 37.974L31.7755 41.3161V45.3732L35.0042 48.6052L28.2725 52.4637L28.2742 37.974Z" fill="black"/>
</g>
<path d="M28.264 30.1833L22.9749 27.4696L22.9758 27.4659L22.9707 27.4674L22.9683 27.4662L22.9678 27.4683L12.9646 30.365C12.6709 30.45 12.4323 30.6647 12.3168 30.9478L3.98343 51.3781C3.81695 51.7862 4.22174 52.1945 4.6313 52.0315L17.6754 46.8397C17.9586 46.727 18.2776 46.7496 18.542 46.9009L27.7675 52.182C28.0751 52.3581 28.453 52.3582 28.7607 52.1822L37.9983 46.9007C38.2627 46.7495 38.5815 46.7271 38.8645 46.8397L51.9166 52.0346C52.325 52.1972 52.7293 51.7916 52.5655 51.3837L44.4364 31.1377C44.3232 30.8558 44.088 30.6407 43.7972 30.553L33.5676 27.4662M28.2764 30.1833L33.5641 27.468M33.5676 27.4662L33.5656 27.4672L33.5688 27.4666L33.5676 27.4662ZM33.5666 27.4667L33.564 27.4659" stroke="url(#paint0_linear_717_8476)" stroke-width="0.5" stroke-linecap="round" stroke-linejoin="round"/>
<path d="M32 37.5869H35.583C37.9856 37.5869 39.9323 35.6357 39.9323 33.2276V17.3593C39.9323 14.9511 37.9856 13 35.583 13H32C34.4021 13 36.3493 14.9517 36.3493 17.3593V33.2276C36.3493 35.6351 34.4021 37.5869 32 37.5869Z" fill="url(#paint1_linear_717_8476)" stroke="url(#paint2_linear_717_8476)" stroke-opacity="0.4" stroke-width="0.5" stroke-linejoin="round"/>
<g style="mix-blend-mode:overlay">
<path d="M31.7666 12.9296H21.3493C18.9473 12.9296 17 14.8813 17 17.2888V33.1571C17 35.5647 18.9473 37.5164 21.3493 37.5164H31.7666C34.1686 37.5164 36.1159 35.5647 36.1159 33.1571V17.2888C36.1159 14.8813 34.1686 12.9296 31.7666 12.9296Z" fill="black"/>
</g>
<path d="M24.3262 7.80756V12.616" stroke="url(#paint3_linear_717_8476)" stroke-width="0.5" stroke-linecap="round" stroke-linejoin="round"/>
<path d="M32.001 7.80756V12.616" stroke="url(#paint4_linear_717_8476)" stroke-width="0.5" stroke-linecap="round" stroke-linejoin="round"/>
<path d="M32.1716 7.06653H34.1858C34.7381 7.06653 35.1858 6.61881 35.1858 6.06653V4C35.1858 3.44772 34.7381 3 34.1858 3H32.1716C32.7239 3 33.1716 3.44772 33.1716 4V6.06653C33.1716 6.61881 32.7239 7.06653 32.1716 7.06653Z" fill="url(#paint5_linear_717_8476)"/>
<g style="mix-blend-mode:overlay" opacity="0.8">
<path d="M32.1719 7.06653H34.186C34.7383 7.06653 35.186 6.61881 35.186 6.06653V4C35.186 3.44772 34.7383 3 34.186 3H32.1719C32.7242 3 33.1719 3.44772 33.1719 4V6.06653C33.1719 6.61881 32.7242 7.06653 32.1719 7.06653Z" fill="black"/>
</g>
<path d="M32.1698 3H22C21.4477 3 21 3.44771 21 4V6.06653C21 6.61881 21.4477 7.06653 22 7.06653H32.1698C32.7221 7.06653 33.1698 6.61881 33.1698 6.06653V4C33.1698 3.44772 32.7221 3 32.1698 3Z" fill="url(#paint6_linear_717_8476)"/>
<path d="M31.7693 12.9338H21.352C18.9499 12.9338 17.0027 14.8855 17.0027 17.2931V33.1614C17.0027 35.5689 18.9499 37.5206 21.352 37.5206H31.7693C34.1713 37.5206 36.1186 35.5689 36.1186 33.1614V17.2931C36.1186 14.8855 34.1713 12.9338 31.7693 12.9338Z" fill="#99CEFF"/>
<path d="M31.7693 12.9338H21.352C18.9499 12.9338 17.0027 14.8856 17.0027 17.2931V33.1614C17.0027 35.569 18.9499 37.5207 21.352 37.5207H31.7693C34.1713 37.5207 36.1186 35.569 36.1186 33.1614V17.2931C36.1186 14.8856 34.1713 12.9338 31.7693 12.9338Z" stroke="url(#paint7_linear_717_8476)" stroke-opacity="0.8" stroke-width="0.5"/>
<path d="M21.3195 40.6312C21.318 40.6312 21.3164 40.6312 21.3149 40.6312H21.322H22.8169C23.6473 40.6312 24.3205 39.9564 24.3205 39.1239C24.3205 38.2914 23.6473 37.6166 22.8169 37.6166H21.322H21.3149C21.3164 37.6166 21.318 37.6166 21.3195 37.6166L21.322 37.6166C22.1524 37.6166 22.8256 38.2914 22.8256 39.1239C22.8256 39.9564 22.1524 40.6312 21.322 40.6312L21.3195 40.6312Z" fill="url(#paint8_linear_717_8476)"/>
<path d="M21.322 40.6312H21.3149C21.3164 40.6312 21.318 40.6312 21.3195 40.6312L21.322 40.6312ZM21.322 40.6312H22.8169C23.6473 40.6312 24.3205 39.9564 24.3205 39.1239C24.3205 38.2914 23.6473 37.6166 22.8169 37.6166H21.322M21.322 40.6312C22.1524 40.6312 22.8256 39.9564 22.8256 39.1239C22.8256 38.2914 22.1524 37.6166 21.322 37.6166M21.322 37.6166H21.3149M21.322 37.6166L21.3195 37.6166C21.318 37.6166 21.3164 37.6166 21.3149 37.6166M21.3149 37.6166H21.3132" stroke="url(#paint9_linear_717_8476)" stroke-opacity="0.4" stroke-width="0.5" stroke-linejoin="round"/>
<path d="M21.3195 40.6312C21.318 40.6312 21.3164 40.6312 21.3149 40.6312H21.322H22.8169C23.6473 40.6312 24.3205 39.9564 24.3205 39.1239C24.3205 38.2914 23.6473 37.6166 22.8169 37.6166H21.322H21.3149C21.3164 37.6166 21.318 37.6166 21.3195 37.6166L21.322 37.6166C22.1524 37.6166 22.8256 38.2914 22.8256 39.1239C22.8256 39.9564 22.1524 40.6312 21.322 40.6312L21.3195 40.6312Z" fill="#004DFF"/>
<path d="M21.3142 40.6301C22.1446 40.6301 22.8178 39.9552 22.8178 39.1227C22.8178 38.2903 22.1446 37.6154 21.3142 37.6154C20.4838 37.6154 19.8105 38.2903 19.8105 39.1227C19.8105 39.9552 20.4838 40.6301 21.3142 40.6301Z" fill="url(#paint10_linear_717_8476)" stroke="url(#paint11_linear_717_8476)" stroke-opacity="0.4" stroke-width="0.5" stroke-linejoin="round"/>
<path d="M33.5119 40.631C33.5103 40.631 33.5088 40.631 33.5072 40.631H33.5143H35.0093C35.8397 40.631 36.5129 39.9562 36.5129 39.1237C36.5129 38.2912 35.8397 37.6164 35.0093 37.6164H33.5143H33.5072C33.5088 37.6164 33.5103 37.6164 33.5119 37.6164L33.5143 37.6164C34.3448 37.6164 35.018 38.2912 35.018 39.1237C35.018 39.9562 34.3448 40.631 33.5143 40.631L33.5119 40.631Z" fill="url(#paint12_linear_717_8476)"/>
<path d="M33.5143 40.631H33.5072C33.5088 40.631 33.5103 40.631 33.5119 40.631L33.5143 40.631ZM33.5143 40.631H35.0093C35.8397 40.631 36.5129 39.9562 36.5129 39.1237C36.5129 38.2912 35.8397 37.6164 35.0093 37.6164H33.5143M33.5143 40.631C34.3448 40.631 35.018 39.9562 35.018 39.1237C35.018 38.2912 34.3448 37.6164 33.5143 37.6164M33.5143 37.6164H33.5072M33.5143 37.6164L33.5119 37.6164C33.5103 37.6164 33.5088 37.6164 33.5072 37.6164M33.5072 37.6164H33.5056" stroke="url(#paint13_linear_717_8476)" stroke-opacity="0.4" stroke-width="0.5" stroke-linejoin="round"/>
<path d="M33.5119 40.631C33.5103 40.631 33.5088 40.631 33.5072 40.631H33.5143H35.0093C35.8397 40.631 36.5129 39.9562 36.5129 39.1237C36.5129 38.2912 35.8397 37.6164 35.0093 37.6164H33.5143H33.5072C33.5088 37.6164 33.5103 37.6164 33.5119 37.6164L33.5143 37.6164C34.3448 37.6164 35.018 38.2912 35.018 39.1237C35.018 39.9562 34.3448 40.631 33.5143 40.631L33.5119 40.631Z" fill="#004DFF"/>
<path d="M33.5036 40.6299C34.3341 40.6299 35.0073 39.955 35.0073 39.1226C35.0073 38.2901 34.3341 37.6152 33.5036 37.6152C32.6732 37.6152 32 38.2901 32 39.1226C32 39.955 32.6732 40.6299 33.5036 40.6299Z" fill="url(#paint14_linear_717_8476)" stroke="url(#paint15_linear_717_8476)" stroke-opacity="0.4" stroke-width="0.5" stroke-linejoin="round"/>
<g style="mix-blend-mode:overlay">
<rect x="20.4888" y="21.2695" width="13.4307" height="11.5385" rx="1" fill="url(#paint16_linear_717_8476)"/>
</g>
<g filter="url(#filter0_d_717_8476)">
<rect x="20.4888" y="21.2695" width="12.4714" height="11.5385" rx="1" fill="#FFBB00"/>
</g>
<g style="mix-blend-mode:overlay" opacity="0.8">
<rect x="20.4888" y="24.1538" width="12.4714" height="0.961688" fill="black"/>
</g>
<defs>
<filter id="filter0_d_717_8476" x="16.4888" y="18.2695" width="18.4714" height="17.5385" filterUnits="userSpaceOnUse" color-interpolation-filters="sRGB">
<feFlood flood-opacity="0" result="BackgroundImageFix"/>
<feColorMatrix in="SourceAlpha" type="matrix" values="0 0 0 0 0 0 0 0 0 0 0 0 0 0 0 0 0 0 127 0" result="hardAlpha"/>
<feOffset dx="-1"/>
<feGaussianBlur stdDeviation="1.5"/>
<feComposite in2="hardAlpha" operator="out"/>
<feColorMatrix type="matrix" values="0 0 0 0 1 0 0 0 0 0.823529 0 0 0 0 0.341176 0 0 0 0.6 0"/>
<feBlend mode="normal" in2="BackgroundImageFix" result="effect1_dropShadow_717_8476"/>
<feBlend mode="normal" in="SourceGraphic" in2="effect1_dropShadow_717_8476" result="shape"/>
</filter>
<linearGradient id="paint0_linear_717_8476" x1="83.2518" y1="47.1075" x2="70.5476" y2="7.93523" gradientUnits="userSpaceOnUse">
<stop stop-color="#1B217C"/>
<stop offset="1" stop-color="#1B217C" stop-opacity="0"/>
</linearGradient>
<linearGradient id="paint1_linear_717_8476" x1="39.6708" y1="34.5752" x2="32.1743" y2="34.5752" gradientUnits="userSpaceOnUse">
<stop stop-color="#008FFF"/>
<stop offset="1" stop-color="#33A5FF"/>
</linearGradient>
<linearGradient id="paint2_linear_717_8476" x1="40.0858" y1="37.5869" x2="28.6887" y2="37.1396" gradientUnits="userSpaceOnUse">
<stop stop-color="white"/>
<stop offset="1" stop-color="white" stop-opacity="0"/>
</linearGradient>
<linearGradient id="paint3_linear_717_8476" x1="24.3262" y1="14.4192" x2="24.3262" y2="7.2065" gradientUnits="userSpaceOnUse">
<stop stop-color="#1B217C"/>
<stop offset="1" stop-color="#1B217C" stop-opacity="0"/>
</linearGradient>
<linearGradient id="paint4_linear_717_8476" x1="32.001" y1="14.4192" x2="32.001" y2="7.2065" gradientUnits="userSpaceOnUse">
<stop stop-color="#1B217C"/>
<stop offset="1" stop-color="#1B217C" stop-opacity="0"/>
</linearGradient>
<linearGradient id="paint5_linear_717_8476" x1="34.4322" y1="6.38877" x2="31.8073" y2="6.8057" gradientUnits="userSpaceOnUse">
<stop stop-color="#FFBB00"/>
<stop offset="1" stop-color="#FFE18F"/>
</linearGradient>
<linearGradient id="paint6_linear_717_8476" x1="30.1273" y1="6.38877" x2="22.4279" y2="11.3263" gradientUnits="userSpaceOnUse">
<stop stop-color="#FFBB00"/>
<stop offset="1" stop-color="#FFE18F"/>
</linearGradient>
<linearGradient id="paint7_linear_717_8476" x1="37.1458" y1="34.1914" x2="0.428377" y2="32.8708" gradientUnits="userSpaceOnUse">
<stop stop-color="white"/>
<stop offset="1" stop-color="white" stop-opacity="0"/>
</linearGradient>
<linearGradient id="paint8_linear_717_8476" x1="24.2214" y1="40.262" x2="21.3793" y2="40.262" gradientUnits="userSpaceOnUse">
<stop stop-color="#008FFF"/>
<stop offset="1" stop-color="#8BCEFF"/>
</linearGradient>
<linearGradient id="paint9_linear_717_8476" x1="24.3787" y1="40.6312" x2="20.114" y2="40.1138" gradientUnits="userSpaceOnUse">
<stop stop-color="white"/>
<stop offset="1" stop-color="white" stop-opacity="0"/>
</linearGradient>
<linearGradient id="paint10_linear_717_8476" x1="22.7187" y1="40.2608" x2="19.8766" y2="40.2608" gradientUnits="userSpaceOnUse">
<stop stop-color="#008FFF"/>
<stop offset="1" stop-color="#8BCEFF"/>
</linearGradient>
<linearGradient id="paint11_linear_717_8476" x1="22.8761" y1="40.6301" x2="18.6113" y2="40.1126" gradientUnits="userSpaceOnUse">
<stop stop-color="white"/>
<stop offset="1" stop-color="white" stop-opacity="0"/>
</linearGradient>
<linearGradient id="paint12_linear_717_8476" x1="36.4138" y1="40.2618" x2="33.5717" y2="40.2618" gradientUnits="userSpaceOnUse">
<stop stop-color="#008FFF"/>
<stop offset="1" stop-color="#8BCEFF"/>
</linearGradient>
<linearGradient id="paint13_linear_717_8476" x1="36.5711" y1="40.631" x2="32.3064" y2="40.1136" gradientUnits="userSpaceOnUse">
<stop stop-color="white"/>
<stop offset="1" stop-color="white" stop-opacity="0"/>
</linearGradient>
<linearGradient id="paint14_linear_717_8476" x1="34.9081" y1="40.2606" x2="32.0661" y2="40.2606" gradientUnits="userSpaceOnUse">
<stop stop-color="#008FFF"/>
<stop offset="1" stop-color="#8BCEFF"/>
</linearGradient>
<linearGradient id="paint15_linear_717_8476" x1="35.0655" y1="40.6299" x2="30.8008" y2="40.1124" gradientUnits="userSpaceOnUse">
<stop stop-color="white"/>
<stop offset="1" stop-color="white" stop-opacity="0"/>
</linearGradient>
<linearGradient id="paint16_linear_717_8476" x1="27.3858" y1="32.1773" x2="27.3498" y2="19.3514" gradientUnits="userSpaceOnUse">
<stop/>
<stop offset="1" stop-opacity="0"/>
</linearGradient>
</defs>
</svg>
